<?xml version="1.0" encoding="UTF-8"?>
<!DOCTYPE svg PUBLIC "-//W3C//DTD SVG 1.1//EN" "http://www.w3.org/Graphics/SVG/1.1/DTD/svg11.dtd">
<svg preserveAspectRatio="xMidYMid meet" width="1024" height="768" viewBox="0 0 1024 768" xmlns="http://www.w3.org/2000/svg" xmlns:xlink="http://www.w3.org/1999/xlink" xmlns:rdf="http://www.w3.org/1999/02/22-rdf-syntax-ns#" xmlns:dc="http://purl.org/dc/elements/1.1/" xmlns:cc="http://web.resource.org/cc/">
 <defs>
  <marker id="arrow" markerWidth="10" markerHeight="10" refx="0" refy="3" orient="auto" markerUnits="strokeWidth" viewBox="0 0 20 20">
    <path d="M0,0 L0,6 L9,3 z" fill="#f00" />
  </marker>
</defs>
   <line x1="89.923645" y1="347.559753" x2="114.488373" y2="328.649780" stroke-width="1" stroke="rgb(0,0,0)"/>
   <line x1="114.488373" y1="328.649780" x2="114.554321" y2="328.599030" stroke-width="1" stroke="rgb(0,0,0)"/>
   <line x1="114.554321" y1="328.599030" x2="139.119080" y2="309.689087" stroke-width="1" stroke="rgb(0,0,0)"/>
   <line x1="139.119080" y1="309.689087" x2="139.152039" y2="309.663696" stroke-width="1" stroke="rgb(0,0,0)"/>
   <line x1="139.152039" y1="309.663696" x2="163.716797" y2="290.753754" stroke-width="1" stroke="rgb(0,0,0)"/>
   <line x1="163.716797" y1="290.753754" x2="163.749771" y2="290.728363" stroke-width="1" stroke="rgb(0,0,0)"/>
   <line x1="163.749771" y1="290.728363" x2="188.347488" y2="271.793030" stroke-width="1" stroke="rgb(0,0,0)"/>
   <line x1="188.347488" y1="271.793030" x2="188.380463" y2="271.767639" stroke-width="1" stroke="rgb(0,0,0)"/>
   <line x1="188.380463" y1="271.767639" x2="212.945206" y2="252.857697" stroke-width="1" stroke="rgb(0,0,0)"/>
   <line x1="212.945206" y1="252.857697" x2="212.978180" y2="252.832321" stroke-width="1" stroke="rgb(0,0,0)"/>
   <line x1="212.978180" y1="252.832321" x2="283.177307" y2="306.871643" stroke-width="1" stroke="rgb(0,0,0)"/>
   <line x1="283.177307" y1="306.871643" x2="283.309204" y2="306.973175" stroke-width="1" stroke="rgb(0,0,0)"/>
   <line x1="283.309204" y1="306.973175" x2="353.508331" y2="361.012482" stroke-width="1" stroke="rgb(0,0,0)"/>
   <line x1="353.508331" y1="361.012482" x2="353.640228" y2="361.114014" stroke-width="1" stroke="rgb(0,0,0)"/>
   <line x1="353.640228" y1="361.114014" x2="423.872314" y2="415.178741" stroke-width="1" stroke="rgb(0,0,0)"/>
   <line x1="423.872314" y1="415.178741" x2="424.004211" y2="415.280273" stroke-width="1" stroke="rgb(0,0,0)"/>
   <line x1="424.004211" y1="415.280273" x2="494.203339" y2="469.319580" stroke-width="1" stroke="rgb(0,0,0)"/>
   <line x1="494.203339" y1="469.319580" x2="494.335236" y2="469.421112" stroke-width="1" stroke="rgb(0,0,0)"/>
   <line x1="494.335236" y1="469.421112" x2="564.534363" y2="523.460449" stroke-width="1" stroke="rgb(0,0,0)"/>
   <line x1="564.534363" y1="523.460449" x2="564.666260" y2="523.561951" stroke-width="1" stroke="rgb(0,0,0)"/>
   <line x1="564.666260" y1="523.561951" x2="634.898315" y2="577.626709" stroke-width="1" stroke="rgb(0,0,0)"/>
   <line x1="634.898315" y1="577.626709" x2="635.030212" y2="577.728210" stroke-width="1" stroke="rgb(0,0,0)"/>
   <line x1="635.030212" y1="577.728210" x2="610.465454" y2="596.638184" stroke-width="1" stroke="rgb(0,0,0)"/>
   <line x1="610.465454" y1="596.638184" x2="610.432495" y2="596.663574" stroke-width="1" stroke="rgb(0,0,0)"/>
   <line x1="610.432495" y1="596.663574" x2="585.867798" y2="615.573486" stroke-width="1" stroke="rgb(0,0,0)"/>
   <line x1="585.867798" y1="615.573486" x2="585.801819" y2="615.624268" stroke-width="1" stroke="rgb(0,0,0)"/>
   <line x1="585.801819" y1="615.624268" x2="561.237061" y2="634.534180" stroke-width="1" stroke="rgb(0,0,0)"/>
   <line x1="561.237061" y1="634.534180" x2="561.204102" y2="634.559570" stroke-width="1" stroke="rgb(0,0,0)"/>
   <line x1="561.204102" y1="634.559570" x2="536.639343" y2="653.469543" stroke-width="1" stroke="rgb(0,0,0)"/>
   <line x1="536.639343" y1="653.469543" x2="536.606384" y2="653.494934" stroke-width="1" stroke="rgb(0,0,0)"/>
   <line x1="536.606384" y1="653.494934" x2="512.008667" y2="672.430298" stroke-width="1" stroke="rgb(0,0,0)"/>
   <line x1="512.008667" y1="672.430298" x2="511.975677" y2="672.455627" stroke-width="1" stroke="rgb(0,0,0)"/>
   <line x1="511.975677" y1="672.455627" x2="487.410950" y2="691.365601" stroke-width="1" stroke="rgb(0,0,0)"/>
   <line x1="487.410950" y1="691.365601" x2="487.377960" y2="691.390991" stroke-width="1" stroke="rgb(0,0,0)"/>
   <line x1="487.377960" y1="691.390991" x2="417.112915" y2="637.300903" stroke-width="1" stroke="rgb(0,0,0)"/>
   <line x1="417.112915" y1="637.300903" x2="417.013977" y2="637.224731" stroke-width="1" stroke="rgb(0,0,0)"/>
   <line x1="417.013977" y1="637.224731" x2="346.781860" y2="583.160034" stroke-width="1" stroke="rgb(0,0,0)"/>
   <line x1="346.781860" y1="583.160034" x2="346.682953" y2="583.083862" stroke-width="1" stroke="rgb(0,0,0)"/>
   <line x1="346.682953" y1="583.083862" x2="276.450867" y2="529.019165" stroke-width="1" stroke="rgb(0,0,0)"/>
   <line x1="276.450867" y1="529.019165" x2="276.351929" y2="528.942993" stroke-width="1" stroke="rgb(0,0,0)"/>
   <line x1="276.351929" y1="528.942993" x2="206.086868" y2="474.852936" stroke-width="1" stroke="rgb(0,0,0)"/>
   <line x1="206.086868" y1="474.852936" x2="205.987946" y2="474.776794" stroke-width="1" stroke="rgb(0,0,0)"/>
   <line x1="205.987946" y1="474.776794" x2="135.755859" y2="420.712097" stroke-width="1" stroke="rgb(0,0,0)"/>
   <line x1="135.755859" y1="420.712097" x2="135.656921" y2="420.635925" stroke-width="1" stroke="rgb(0,0,0)"/>
   <line x1="135.656921" y1="420.635925" x2="65.424835" y2="366.571228" stroke-width="1" stroke="rgb(0,0,0)"/>
   <line x1="65.424835" y1="366.571228" x2="65.325928" y2="366.495087" stroke-width="1" stroke="rgb(0,0,0)"/>
   <line x1="65.325928" y1="366.495087" x2="89.890656" y2="347.585144" stroke-width="1" stroke="rgb(0,0,0)"/>
   <line x1="89.890656" y1="347.585144" x2="89.923645" y2="347.559753" stroke-width="1" stroke="rgb(0,0,0)"/>
   <line x1="89.923645" y1="341.061829" x2="94.770630" y2="337.330597" stroke-width="1" stroke="rgb(0,0,0)"/>
   <line x1="94.770630" y1="337.330597" x2="114.554321" y2="322.101135" stroke-width="1" stroke="rgb(0,0,0)"/>
   <line x1="114.554321" y1="322.101135" x2="119.401337" y2="318.369873" stroke-width="1" stroke="rgb(0,0,0)"/>
   <line x1="119.401337" y1="318.369873" x2="139.152039" y2="303.165771" stroke-width="1" stroke="rgb(0,0,0)"/>
   <line x1="139.152039" y1="303.165771" x2="143.999054" y2="299.434570" stroke-width="1" stroke="rgb(0,0,0)"/>
   <line x1="143.999054" y1="299.434570" x2="163.749771" y2="284.230438" stroke-width="1" stroke="rgb(0,0,0)"/>
   <line x1="163.749771" y1="284.230438" x2="168.629745" y2="280.473846" stroke-width="1" stroke="rgb(0,0,0)"/>
   <line x1="168.629745" y1="280.473846" x2="188.380463" y2="265.269745" stroke-width="1" stroke="rgb(0,0,0)"/>
   <line x1="188.380463" y1="265.269745" x2="193.227463" y2="261.538513" stroke-width="1" stroke="rgb(0,0,0)"/>
   <line x1="193.227463" y1="261.538513" x2="212.978180" y2="246.334412" stroke-width="1" stroke="rgb(0,0,0)"/>
   <line x1="212.978180" y1="246.334412" x2="226.826767" y2="256.995056" stroke-width="1" stroke="rgb(0,0,0)"/>
   <line x1="226.826767" y1="256.995056" x2="283.309204" y2="300.475250" stroke-width="1" stroke="rgb(0,0,0)"/>
   <line x1="283.309204" y1="300.475250" x2="297.157776" y2="311.135895" stroke-width="1" stroke="rgb(0,0,0)"/>
   <line x1="297.157776" y1="311.135895" x2="353.640228" y2="354.616089" stroke-width="1" stroke="rgb(0,0,0)"/>
   <line x1="353.640228" y1="354.616089" x2="367.488800" y2="365.276764" stroke-width="1" stroke="rgb(0,0,0)"/>
   <line x1="367.488800" y1="365.276764" x2="424.004211" y2="408.782349" stroke-width="1" stroke="rgb(0,0,0)"/>
   <line x1="424.004211" y1="408.782349" x2="437.852783" y2="419.442993" stroke-width="1" stroke="rgb(0,0,0)"/>
   <line x1="437.852783" y1="419.442993" x2="494.335236" y2="462.923187" stroke-width="1" stroke="rgb(0,0,0)"/>
   <line x1="494.335236" y1="462.923187" x2="508.183807" y2="473.583832" stroke-width="1" stroke="rgb(0,0,0)"/>
   <line x1="508.183807" y1="473.583832" x2="564.666260" y2="517.064026" stroke-width="1" stroke="rgb(0,0,0)"/>
   <line x1="564.666260" y1="517.064026" x2="578.514832" y2="527.724670" stroke-width="1" stroke="rgb(0,0,0)"/>
   <line x1="578.514832" y1="527.724670" x2="635.030212" y2="571.230286" stroke-width="1" stroke="rgb(0,0,0)"/>
   <line x1="635.030212" y1="571.230286" x2="630.183228" y2="574.961548" stroke-width="1" stroke="rgb(0,0,0)"/>
   <line x1="630.183228" y1="574.961548" x2="610.432495" y2="590.165649" stroke-width="1" stroke="rgb(0,0,0)"/>
   <line x1="610.432495" y1="590.165649" x2="605.585510" y2="593.896851" stroke-width="1" stroke="rgb(0,0,0)"/>
   <line x1="605.585510" y1="593.896851" x2="585.801819" y2="609.126343" stroke-width="1" stroke="rgb(0,0,0)"/>
   <line x1="585.801819" y1="609.126343" x2="580.954834" y2="612.857544" stroke-width="1" stroke="rgb(0,0,0)"/>
   <line x1="580.954834" y1="612.857544" x2="561.204102" y2="628.061646" stroke-width="1" stroke="rgb(0,0,0)"/>
   <line x1="561.204102" y1="628.061646" x2="556.357056" y2="631.792908" stroke-width="1" stroke="rgb(0,0,0)"/>
   <line x1="556.357056" y1="631.792908" x2="536.606384" y2="646.997009" stroke-width="1" stroke="rgb(0,0,0)"/>
   <line x1="536.606384" y1="646.997009" x2="531.726379" y2="650.753601" stroke-width="1" stroke="rgb(0,0,0)"/>
   <line x1="531.726379" y1="650.753601" x2="511.975677" y2="665.957703" stroke-width="1" stroke="rgb(0,0,0)"/>
   <line x1="511.975677" y1="665.957703" x2="507.128662" y2="669.688965" stroke-width="1" stroke="rgb(0,0,0)"/>
   <line x1="507.128662" y1="669.688965" x2="487.377960" y2="684.893066" stroke-width="1" stroke="rgb(0,0,0)"/>
   <line x1="487.377960" y1="684.893066" x2="473.496399" y2="674.207031" stroke-width="1" stroke="rgb(0,0,0)"/>
   <line x1="473.496399" y1="674.207031" x2="417.013977" y2="630.726807" stroke-width="1" stroke="rgb(0,0,0)"/>
   <line x1="417.013977" y1="630.726807" x2="403.132416" y2="620.040771" stroke-width="1" stroke="rgb(0,0,0)"/>
   <line x1="403.132416" y1="620.040771" x2="346.682953" y2="576.585938" stroke-width="1" stroke="rgb(0,0,0)"/>
   <line x1="346.682953" y1="576.585938" x2="332.801392" y2="565.899902" stroke-width="1" stroke="rgb(0,0,0)"/>
   <line x1="332.801392" y1="565.899902" x2="276.351929" y2="522.445129" stroke-width="1" stroke="rgb(0,0,0)"/>
   <line x1="276.351929" y1="522.445129" x2="262.470398" y2="511.759094" stroke-width="1" stroke="rgb(0,0,0)"/>
   <line x1="262.470398" y1="511.759094" x2="205.987946" y2="468.278870" stroke-width="1" stroke="rgb(0,0,0)"/>
   <line x1="205.987946" y1="468.278870" x2="192.106400" y2="457.592834" stroke-width="1" stroke="rgb(0,0,0)"/>
   <line x1="192.106400" y1="457.592834" x2="135.656921" y2="414.138031" stroke-width="1" stroke="rgb(0,0,0)"/>
   <line x1="135.656921" y1="414.138031" x2="121.775391" y2="403.451996" stroke-width="1" stroke="rgb(0,0,0)"/>
   <line x1="121.775391" y1="403.451996" x2="65.325928" y2="359.997162" stroke-width="1" stroke="rgb(0,0,0)"/>
   <line x1="65.325928" y1="359.997162" x2="70.172913" y2="356.265930" stroke-width="1" stroke="rgb(0,0,0)"/>
   <line x1="70.172913" y1="356.265930" x2="89.923645" y2="341.061829" stroke-width="1" stroke="rgb(0,0,0)"/>
   <line x1="75.085876" y1="345.986023" x2="89.923645" y2="334.563904" stroke-width="1" stroke="rgb(0,0,0)"/>
   <line x1="89.923645" y1="334.563904" x2="99.716553" y2="327.025330" stroke-width="1" stroke="rgb(0,0,0)"/>
   <line x1="99.716553" y1="327.025330" x2="114.554321" y2="315.603210" stroke-width="1" stroke="rgb(0,0,0)"/>
   <line x1="114.554321" y1="315.603210" x2="124.314270" y2="308.089966" stroke-width="1" stroke="rgb(0,0,0)"/>
   <line x1="124.314270" y1="308.089966" x2="139.152039" y2="296.667847" stroke-width="1" stroke="rgb(0,0,0)"/>
   <line x1="139.152039" y1="296.667847" x2="148.944977" y2="289.129272" stroke-width="1" stroke="rgb(0,0,0)"/>
   <line x1="148.944977" y1="289.129272" x2="163.749771" y2="277.732544" stroke-width="1" stroke="rgb(0,0,0)"/>
   <line x1="163.749771" y1="277.732544" x2="173.542694" y2="270.193939" stroke-width="1" stroke="rgb(0,0,0)"/>
   <line x1="173.542694" y1="270.193939" x2="188.380463" y2="258.771820" stroke-width="1" stroke="rgb(0,0,0)"/>
   <line x1="188.380463" y1="258.771820" x2="198.173386" y2="251.233215" stroke-width="1" stroke="rgb(0,0,0)"/>
   <line x1="198.173386" y1="251.233215" x2="212.978180" y2="239.836487" stroke-width="1" stroke="rgb(0,0,0)"/>
   <line x1="212.978180" y1="239.836487" x2="240.939133" y2="261.360840" stroke-width="1" stroke="rgb(0,0,0)"/>
   <line x1="240.939133" y1="261.360840" x2="283.309204" y2="293.977325" stroke-width="1" stroke="rgb(0,0,0)"/>
   <line x1="283.309204" y1="293.977325" x2="311.270142" y2="315.501678" stroke-width="1" stroke="rgb(0,0,0)"/>
   <line x1="311.270142" y1="315.501678" x2="353.640228" y2="348.118195" stroke-width="1" stroke="rgb(0,0,0)"/>
   <line x1="353.640228" y1="348.118195" x2="381.601166" y2="369.642548" stroke-width="1" stroke="rgb(0,0,0)"/>
   <line x1="381.601166" y1="369.642548" x2="424.004211" y2="402.284424" stroke-width="1" stroke="rgb(0,0,0)"/>
   <line x1="424.004211" y1="402.284424" x2="451.965149" y2="423.808777" stroke-width="1" stroke="rgb(0,0,0)"/>
   <line x1="451.965149" y1="423.808777" x2="494.335236" y2="456.425293" stroke-width="1" stroke="rgb(0,0,0)"/>
   <line x1="494.335236" y1="456.425293" x2="522.296143" y2="477.949646" stroke-width="1" stroke="rgb(0,0,0)"/>
   <line x1="522.296143" y1="477.949646" x2="564.666260" y2="510.566132" stroke-width="1" stroke="rgb(0,0,0)"/>
   <line x1="564.666260" y1="510.566132" x2="592.627197" y2="532.090454" stroke-width="1" stroke="rgb(0,0,0)"/>
   <line x1="592.627197" y1="532.090454" x2="635.030212" y2="564.732361" stroke-width="1" stroke="rgb(0,0,0)"/>
   <line x1="635.030212" y1="564.732361" x2="625.270264" y2="572.245605" stroke-width="1" stroke="rgb(0,0,0)"/>
   <line x1="625.270264" y1="572.245605" x2="610.432495" y2="583.667725" stroke-width="1" stroke="rgb(0,0,0)"/>
   <line x1="610.432495" y1="583.667725" x2="600.639587" y2="591.206299" stroke-width="1" stroke="rgb(0,0,0)"/>
   <line x1="600.639587" y1="591.206299" x2="585.801819" y2="602.628418" stroke-width="1" stroke="rgb(0,0,0)"/>
   <line x1="585.801819" y1="602.628418" x2="576.041870" y2="610.141602" stroke-width="1" stroke="rgb(0,0,0)"/>
   <line x1="576.041870" y1="610.141602" x2="561.204102" y2="621.563721" stroke-width="1" stroke="rgb(0,0,0)"/>
   <line x1="561.204102" y1="621.563721" x2="551.411133" y2="629.102356" stroke-width="1" stroke="rgb(0,0,0)"/>
   <line x1="551.411133" y1="629.102356" x2="536.606384" y2="640.499084" stroke-width="1" stroke="rgb(0,0,0)"/>
   <line x1="536.606384" y1="640.499084" x2="526.813477" y2="648.037659" stroke-width="1" stroke="rgb(0,0,0)"/>
   <line x1="526.813477" y1="648.037659" x2="511.975677" y2="659.459778" stroke-width="1" stroke="rgb(0,0,0)"/>
   <line x1="511.975677" y1="659.459778" x2="502.182739" y2="666.998413" stroke-width="1" stroke="rgb(0,0,0)"/>
   <line x1="502.182739" y1="666.998413" x2="487.377960" y2="678.395142" stroke-width="1" stroke="rgb(0,0,0)"/>
   <line x1="487.377960" y1="678.395142" x2="459.384033" y2="656.845398" stroke-width="1" stroke="rgb(0,0,0)"/>
   <line x1="459.384033" y1="656.845398" x2="417.013977" y2="624.228882" stroke-width="1" stroke="rgb(0,0,0)"/>
   <line x1="417.013977" y1="624.228882" x2="389.020050" y2="602.679199" stroke-width="1" stroke="rgb(0,0,0)"/>
   <line x1="389.020050" y1="602.679199" x2="346.682953" y2="570.088074" stroke-width="1" stroke="rgb(0,0,0)"/>
   <line x1="346.682953" y1="570.088074" x2="318.689026" y2="548.538330" stroke-width="1" stroke="rgb(0,0,0)"/>
   <line x1="318.689026" y1="548.538330" x2="276.351929" y2="515.947205" stroke-width="1" stroke="rgb(0,0,0)"/>
   <line x1="276.351929" y1="515.947205" x2="248.358017" y2="494.397461" stroke-width="1" stroke="rgb(0,0,0)"/>
   <line x1="248.358017" y1="494.397461" x2="205.987946" y2="461.780945" stroke-width="1" stroke="rgb(0,0,0)"/>
   <line x1="205.987946" y1="461.780945" x2="177.994019" y2="440.231232" stroke-width="1" stroke="rgb(0,0,0)"/>
   <line x1="177.994019" y1="440.231232" x2="135.656921" y2="407.640106" stroke-width="1" stroke="rgb(0,0,0)"/>
   <line x1="135.656921" y1="407.640106" x2="107.663025" y2="386.090363" stroke-width="1" stroke="rgb(0,0,0)"/>
   <line x1="107.663025" y1="386.090363" x2="65.325928" y2="353.499268" stroke-width="1" stroke="rgb(0,0,0)"/>
   <line x1="65.325928" y1="353.499268" x2="75.085876" y2="345.986023" stroke-width="1" stroke="rgb(0,0,0)"/>
   <line x1="80.031799" y1="335.680725" x2="89.923645" y2="328.066010" stroke-width="1" stroke="rgb(0,0,0)"/>
   <line x1="89.923645" y1="328.066010" x2="104.629517" y2="316.745422" stroke-width="1" stroke="rgb(0,0,0)"/>
   <line x1="104.629517" y1="316.745422" x2="114.554321" y2="309.105286" stroke-width="1" stroke="rgb(0,0,0)"/>
   <line x1="114.554321" y1="309.105286" x2="129.260193" y2="297.784698" stroke-width="1" stroke="rgb(0,0,0)"/>
   <line x1="129.260193" y1="297.784698" x2="139.152039" y2="290.169952" stroke-width="1" stroke="rgb(0,0,0)"/>
   <line x1="139.152039" y1="290.169952" x2="153.857925" y2="278.849365" stroke-width="1" stroke="rgb(0,0,0)"/>
   <line x1="153.857925" y1="278.849365" x2="163.749771" y2="271.234619" stroke-width="1" stroke="rgb(0,0,0)"/>
   <line x1="163.749771" y1="271.234619" x2="178.488617" y2="259.888641" stroke-width="1" stroke="rgb(0,0,0)"/>
   <line x1="178.488617" y1="259.888641" x2="188.380463" y2="252.273895" stroke-width="1" stroke="rgb(0,0,0)"/>
   <line x1="188.380463" y1="252.273895" x2="203.086334" y2="240.953308" stroke-width="1" stroke="rgb(0,0,0)"/>
   <line x1="203.086334" y1="240.953308" x2="212.978180" y2="233.338562" stroke-width="1" stroke="rgb(0,0,0)"/>
   <line x1="212.978180" y1="233.338562" x2="255.018524" y2="265.701233" stroke-width="1" stroke="rgb(0,0,0)"/>
   <line x1="255.018524" y1="265.701233" x2="283.309204" y2="287.479431" stroke-width="1" stroke="rgb(0,0,0)"/>
   <line x1="283.309204" y1="287.479431" x2="325.349548" y2="319.842102" stroke-width="1" stroke="rgb(0,0,0)"/>
   <line x1="325.349548" y1="319.842102" x2="353.640228" y2="341.620270" stroke-width="1" stroke="rgb(0,0,0)"/>
   <line x1="353.640228" y1="341.620270" x2="395.680573" y2="373.982941" stroke-width="1" stroke="rgb(0,0,0)"/>
   <line x1="395.680573" y1="373.982941" x2="424.004211" y2="395.786499" stroke-width="1" stroke="rgb(0,0,0)"/>
   <line x1="424.004211" y1="395.786499" x2="466.044556" y2="428.149170" stroke-width="1" stroke="rgb(0,0,0)"/>
   <line x1="466.044556" y1="428.149170" x2="494.335236" y2="449.927368" stroke-width="1" stroke="rgb(0,0,0)"/>
   <line x1="494.335236" y1="449.927368" x2="536.375549" y2="482.290039" stroke-width="1" stroke="rgb(0,0,0)"/>
   <line x1="536.375549" y1="482.290039" x2="564.666260" y2="504.068207" stroke-width="1" stroke="rgb(0,0,0)"/>
   <line x1="564.666260" y1="504.068207" x2="606.706604" y2="536.430908" stroke-width="1" stroke="rgb(0,0,0)"/>
   <line x1="606.706604" y1="536.430908" x2="635.030212" y2="558.234497" stroke-width="1" stroke="rgb(0,0,0)"/>
   <line x1="635.030212" y1="558.234497" x2="620.324341" y2="569.555054" stroke-width="1" stroke="rgb(0,0,0)"/>
   <line x1="620.324341" y1="569.555054" x2="610.432495" y2="577.169800" stroke-width="1" stroke="rgb(0,0,0)"/>
   <line x1="610.432495" y1="577.169800" x2="595.726624" y2="588.490356" stroke-width="1" stroke="rgb(0,0,0)"/>
   <line x1="595.726624" y1="588.490356" x2="585.801819" y2="596.130493" stroke-width="1" stroke="rgb(0,0,0)"/>
   <line x1="585.801819" y1="596.130493" x2="571.095947" y2="607.451050" stroke-width="1" stroke="rgb(0,0,0)"/>
   <line x1="571.095947" y1="607.451050" x2="561.204102" y2="615.065796" stroke-width="1" stroke="rgb(0,0,0)"/>
   <line x1="561.204102" y1="615.065796" x2="546.498230" y2="626.386475" stroke-width="1" stroke="rgb(0,0,0)"/>
   <line x1="546.498230" y1="626.386475" x2="536.606384" y2="634.001221" stroke-width="1" stroke="rgb(0,0,0)"/>
   <line x1="536.606384" y1="634.001221" x2="521.867554" y2="645.347168" stroke-width="1" stroke="rgb(0,0,0)"/>
   <line x1="521.867554" y1="645.347168" x2="511.975677" y2="652.961914" stroke-width="1" stroke="rgb(0,0,0)"/>
   <line x1="511.975677" y1="652.961914" x2="497.269806" y2="664.282471" stroke-width="1" stroke="rgb(0,0,0)"/>
   <line x1="497.269806" y1="664.282471" x2="487.377960" y2="671.897217" stroke-width="1" stroke="rgb(0,0,0)"/>
   <line x1="487.377960" y1="671.897217" x2="445.304657" y2="639.509155" stroke-width="1" stroke="rgb(0,0,0)"/>
   <line x1="445.304657" y1="639.509155" x2="417.013977" y2="617.730957" stroke-width="1" stroke="rgb(0,0,0)"/>
   <line x1="417.013977" y1="617.730957" x2="374.973633" y2="585.368286" stroke-width="1" stroke="rgb(0,0,0)"/>
   <line x1="374.973633" y1="585.368286" x2="346.682953" y2="563.590149" stroke-width="1" stroke="rgb(0,0,0)"/>
   <line x1="346.682953" y1="563.590149" x2="304.642609" y2="531.227417" stroke-width="1" stroke="rgb(0,0,0)"/>
   <line x1="304.642609" y1="531.227417" x2="276.351929" y2="509.449280" stroke-width="1" stroke="rgb(0,0,0)"/>
   <line x1="276.351929" y1="509.449280" x2="234.278625" y2="477.061218" stroke-width="1" stroke="rgb(0,0,0)"/>
   <line x1="234.278625" y1="477.061218" x2="205.987946" y2="455.283051" stroke-width="1" stroke="rgb(0,0,0)"/>
   <line x1="205.987946" y1="455.283051" x2="163.947601" y2="422.920380" stroke-width="1" stroke="rgb(0,0,0)"/>
   <line x1="163.947601" y1="422.920380" x2="135.656921" y2="401.142181" stroke-width="1" stroke="rgb(0,0,0)"/>
   <line x1="135.656921" y1="401.142181" x2="93.616577" y2="368.779510" stroke-width="1" stroke="rgb(0,0,0)"/>
   <line x1="93.616577" y1="368.779510" x2="65.325928" y2="347.001343" stroke-width="1" stroke="rgb(0,0,0)"/>
   <line x1="65.325928" y1="347.001343" x2="80.031799" y2="335.680725" stroke-width="1" stroke="rgb(0,0,0)"/>
   <line x1="84.944733" y1="325.400818" x2="89.923645" y2="321.568085" stroke-width="1" stroke="rgb(0,0,0)"/>
   <line x1="89.923645" y1="321.568085" x2="109.542450" y2="306.465515" stroke-width="1" stroke="rgb(0,0,0)"/>
   <line x1="109.542450" y1="306.465515" x2="114.554321" y2="302.607361" stroke-width="1" stroke="rgb(0,0,0)"/>
   <line x1="114.554321" y1="302.607361" x2="134.173157" y2="287.504791" stroke-width="1" stroke="rgb(0,0,0)"/>
   <line x1="134.173157" y1="287.504791" x2="139.152039" y2="283.672028" stroke-width="1" stroke="rgb(0,0,0)"/>
   <line x1="139.152039" y1="283.672028" x2="158.770874" y2="268.569458" stroke-width="1" stroke="rgb(0,0,0)"/>
   <line x1="158.770874" y1="268.569458" x2="163.749771" y2="264.736694" stroke-width="1" stroke="rgb(0,0,0)"/>
   <line x1="163.749771" y1="264.736694" x2="183.401566" y2="249.608734" stroke-width="1" stroke="rgb(0,0,0)"/>
   <line x1="183.401566" y1="249.608734" x2="188.380463" y2="245.775986" stroke-width="1" stroke="rgb(0,0,0)"/>
   <line x1="188.380463" y1="245.775986" x2="207.999283" y2="230.673401" stroke-width="1" stroke="rgb(0,0,0)"/>
   <line x1="207.999283" y1="230.673401" x2="212.978180" y2="226.840652" stroke-width="1" stroke="rgb(0,0,0)"/>
   <line x1="212.978180" y1="226.840652" x2="269.031982" y2="269.990875" stroke-width="1" stroke="rgb(0,0,0)"/>
   <line x1="269.031982" y1="269.990875" x2="283.309204" y2="280.981506" stroke-width="1" stroke="rgb(0,0,0)"/>
   <line x1="283.309204" y1="280.981506" x2="339.362976" y2="324.131744" stroke-width="1" stroke="rgb(0,0,0)"/>
   <line x1="339.362976" y1="324.131744" x2="353.640228" y2="335.122345" stroke-width="1" stroke="rgb(0,0,0)"/>
   <line x1="353.640228" y1="335.122345" x2="409.726990" y2="378.297974" stroke-width="1" stroke="rgb(0,0,0)"/>
   <line x1="409.726990" y1="378.297974" x2="424.004211" y2="389.288605" stroke-width="1" stroke="rgb(0,0,0)"/>
   <line x1="424.004211" y1="389.288605" x2="480.057983" y2="432.438812" stroke-width="1" stroke="rgb(0,0,0)"/>
   <line x1="480.057983" y1="432.438812" x2="494.335236" y2="443.429443" stroke-width="1" stroke="rgb(0,0,0)"/>
   <line x1="494.335236" y1="443.429443" x2="550.389038" y2="486.579681" stroke-width="1" stroke="rgb(0,0,0)"/>
   <line x1="550.389038" y1="486.579681" x2="564.666260" y2="497.570312" stroke-width="1" stroke="rgb(0,0,0)"/>
   <line x1="564.666260" y1="497.570312" x2="620.752991" y2="540.745911" stroke-width="1" stroke="rgb(0,0,0)"/>
   <line x1="620.752991" y1="540.745911" x2="635.030212" y2="551.736572" stroke-width="1" stroke="rgb(0,0,0)"/>
   <line x1="635.030212" y1="551.736572" x2="615.411377" y2="566.839111" stroke-width="1" stroke="rgb(0,0,0)"/>
   <line x1="615.411377" y1="566.839111" x2="610.432495" y2="570.671875" stroke-width="1" stroke="rgb(0,0,0)"/>
   <line x1="610.432495" y1="570.671875" x2="590.813721" y2="585.774414" stroke-width="1" stroke="rgb(0,0,0)"/>
   <line x1="590.813721" y1="585.774414" x2="585.801819" y2="589.632568" stroke-width="1" stroke="rgb(0,0,0)"/>
   <line x1="585.801819" y1="589.632568" x2="566.182983" y2="604.735168" stroke-width="1" stroke="rgb(0,0,0)"/>
   <line x1="566.182983" y1="604.735168" x2="561.204102" y2="608.567932" stroke-width="1" stroke="rgb(0,0,0)"/>
   <line x1="561.204102" y1="608.567932" x2="541.585266" y2="623.670532" stroke-width="1" stroke="rgb(0,0,0)"/>
   <line x1="541.585266" y1="623.670532" x2="536.606384" y2="627.503296" stroke-width="1" stroke="rgb(0,0,0)"/>
   <line x1="536.606384" y1="627.503296" x2="516.954590" y2="642.631226" stroke-width="1" stroke="rgb(0,0,0)"/>
   <line x1="516.954590" y1="642.631226" x2="511.975677" y2="646.463989" stroke-width="1" stroke="rgb(0,0,0)"/>
   <line x1="511.975677" y1="646.463989" x2="492.356873" y2="661.566528" stroke-width="1" stroke="rgb(0,0,0)"/>
   <line x1="492.356873" y1="661.566528" x2="487.377960" y2="665.399292" stroke-width="1" stroke="rgb(0,0,0)"/>
   <line x1="487.377960" y1="665.399292" x2="431.258240" y2="622.198303" stroke-width="1" stroke="rgb(0,0,0)"/>
   <line x1="431.258240" y1="622.198303" x2="417.013977" y2="611.233032" stroke-width="1" stroke="rgb(0,0,0)"/>
   <line x1="417.013977" y1="611.233032" x2="360.927216" y2="568.057434" stroke-width="1" stroke="rgb(0,0,0)"/>
   <line x1="360.927216" y1="568.057434" x2="346.682953" y2="557.092224" stroke-width="1" stroke="rgb(0,0,0)"/>
   <line x1="346.682953" y1="557.092224" x2="290.596191" y2="513.916626" stroke-width="1" stroke="rgb(0,0,0)"/>
   <line x1="290.596191" y1="513.916626" x2="276.351929" y2="502.951355" stroke-width="1" stroke="rgb(0,0,0)"/>
   <line x1="276.351929" y1="502.951355" x2="220.232208" y2="459.750366" stroke-width="1" stroke="rgb(0,0,0)"/>
   <line x1="220.232208" y1="459.750366" x2="205.987946" y2="448.785126" stroke-width="1" stroke="rgb(0,0,0)"/>
   <line x1="205.987946" y1="448.785126" x2="149.901184" y2="405.609497" stroke-width="1" stroke="rgb(0,0,0)"/>
   <line x1="149.901184" y1="405.609497" x2="135.656921" y2="394.644287" stroke-width="1" stroke="rgb(0,0,0)"/>
   <line x1="135.656921" y1="394.644287" x2="79.570190" y2="351.468658" stroke-width="1" stroke="rgb(0,0,0)"/>
   <line x1="79.570190" y1="351.468658" x2="65.325928" y2="340.503418" stroke-width="1" stroke="rgb(0,0,0)"/>
   <line x1="65.325928" y1="340.503418" x2="84.944733" y2="325.400818" stroke-width="1" stroke="rgb(0,0,0)"/>
   <line x1="139.119080" y1="277.199493" x2="139.152039" y2="277.174103" stroke-width="1" stroke="rgb(0,0,0)"/>
   <line x1="139.152039" y1="277.174103" x2="163.716797" y2="258.264160" stroke-width="1" stroke="rgb(0,0,0)"/>
   <line x1="163.716797" y1="258.264160" x2="163.749771" y2="258.238770" stroke-width="1" stroke="rgb(0,0,0)"/>
   <line x1="163.749771" y1="258.238770" x2="188.347488" y2="239.303436" stroke-width="1" stroke="rgb(0,0,0)"/>
   <line x1="188.347488" y1="239.303436" x2="188.380463" y2="239.278076" stroke-width="1" stroke="rgb(0,0,0)"/>
   <line x1="188.380463" y1="239.278076" x2="212.945206" y2="220.368103" stroke-width="1" stroke="rgb(0,0,0)"/>
   <line x1="212.945206" y1="220.368103" x2="212.978180" y2="220.342743" stroke-width="1" stroke="rgb(0,0,0)"/>
   <line x1="212.978180" y1="220.342743" x2="283.177307" y2="274.382050" stroke-width="1" stroke="rgb(0,0,0)"/>
   <line x1="283.177307" y1="274.382050" x2="283.309204" y2="274.483582" stroke-width="1" stroke="rgb(0,0,0)"/>
   <line x1="283.309204" y1="274.483582" x2="353.508331" y2="328.522888" stroke-width="1" stroke="rgb(0,0,0)"/>
   <line x1="353.508331" y1="328.522888" x2="353.640228" y2="328.624451" stroke-width="1" stroke="rgb(0,0,0)"/>
   <line x1="353.640228" y1="328.624451" x2="423.872314" y2="382.689148" stroke-width="1" stroke="rgb(0,0,0)"/>
   <line x1="423.872314" y1="382.689148" x2="424.004211" y2="382.790680" stroke-width="1" stroke="rgb(0,0,0)"/>
   <line x1="424.004211" y1="382.790680" x2="494.203339" y2="436.829987" stroke-width="1" stroke="rgb(0,0,0)"/>
   <line x1="494.203339" y1="436.829987" x2="494.335236" y2="436.931519" stroke-width="1" stroke="rgb(0,0,0)"/>
   <line x1="494.335236" y1="436.931519" x2="564.534363" y2="490.970856" stroke-width="1" stroke="rgb(0,0,0)"/>
   <line x1="564.534363" y1="490.970856" x2="564.666260" y2="491.072388" stroke-width="1" stroke="rgb(0,0,0)"/>
   <line x1="564.666260" y1="491.072388" x2="634.898315" y2="545.137085" stroke-width="1" stroke="rgb(0,0,0)"/>
   <line x1="634.898315" y1="545.137085" x2="635.030212" y2="545.238647" stroke-width="1" stroke="rgb(0,0,0)"/>
   <line x1="635.030212" y1="545.238647" x2="610.465454" y2="564.148560" stroke-width="1" stroke="rgb(0,0,0)"/>
   <line x1="610.465454" y1="564.148560" x2="610.432495" y2="564.173950" stroke-width="1" stroke="rgb(0,0,0)"/>
   <line x1="610.432495" y1="564.173950" x2="585.867798" y2="583.083862" stroke-width="1" stroke="rgb(0,0,0)"/>
   <line x1="585.867798" y1="583.083862" x2="585.801819" y2="583.134644" stroke-width="1" stroke="rgb(0,0,0)"/>
   <line x1="585.801819" y1="583.134644" x2="561.237061" y2="602.044617" stroke-width="1" stroke="rgb(0,0,0)"/>
   <line x1="561.237061" y1="602.044617" x2="561.204102" y2="602.070007" stroke-width="1" stroke="rgb(0,0,0)"/>
   <line x1="561.204102" y1="602.070007" x2="536.639343" y2="620.979980" stroke-width="1" stroke="rgb(0,0,0)"/>
   <line x1="536.639343" y1="620.979980" x2="536.606384" y2="621.005371" stroke-width="1" stroke="rgb(0,0,0)"/>
   <line x1="536.606384" y1="621.005371" x2="512.008667" y2="639.940674" stroke-width="1" stroke="rgb(0,0,0)"/>
   <line x1="512.008667" y1="639.940674" x2="511.975677" y2="639.966064" stroke-width="1" stroke="rgb(0,0,0)"/>
   <line x1="511.975677" y1="639.966064" x2="487.410950" y2="658.875977" stroke-width="1" stroke="rgb(0,0,0)"/>
   <line x1="487.410950" y1="658.875977" x2="487.377960" y2="658.901367" stroke-width="1" stroke="rgb(0,0,0)"/>
   <line x1="487.377960" y1="658.901367" x2="417.112915" y2="604.811279" stroke-width="1" stroke="rgb(0,0,0)"/>
   <line x1="417.112915" y1="604.811279" x2="417.013977" y2="604.735107" stroke-width="1" stroke="rgb(0,0,0)"/>
   <line x1="417.013977" y1="604.735107" x2="346.781860" y2="550.670410" stroke-width="1" stroke="rgb(0,0,0)"/>
   <line x1="346.781860" y1="550.670410" x2="346.682953" y2="550.594299" stroke-width="1" stroke="rgb(0,0,0)"/>
   <line x1="346.682953" y1="550.594299" x2="276.450867" y2="496.529602" stroke-width="1" stroke="rgb(0,0,0)"/>
   <line x1="276.450867" y1="496.529602" x2="276.351929" y2="496.453430" stroke-width="1" stroke="rgb(0,0,0)"/>
   <line x1="276.351929" y1="496.453430" x2="206.086868" y2="442.363342" stroke-width="1" stroke="rgb(0,0,0)"/>
   <line x1="206.086868" y1="442.363342" x2="205.987946" y2="442.287201" stroke-width="1" stroke="rgb(0,0,0)"/>
   <line x1="205.987946" y1="442.287201" x2="135.755859" y2="388.222504" stroke-width="1" stroke="rgb(0,0,0)"/>
   <line x1="135.755859" y1="388.222504" x2="135.656921" y2="388.146362" stroke-width="1" stroke="rgb(0,0,0)"/>
   <line x1="135.656921" y1="388.146362" x2="65.424835" y2="334.081665" stroke-width="1" stroke="rgb(0,0,0)"/>
   <line x1="65.424835" y1="334.081665" x2="65.325928" y2="334.005493" stroke-width="1" stroke="rgb(0,0,0)"/>
   <line x1="65.325928" y1="334.005493" x2="89.890656" y2="315.095551" stroke-width="1" stroke="rgb(0,0,0)"/>
   <line x1="89.890656" y1="315.095551" x2="89.923645" y2="315.070160" stroke-width="1" stroke="rgb(0,0,0)"/>
   <line x1="89.923645" y1="315.070160" x2="114.488373" y2="296.160217" stroke-width="1" stroke="rgb(0,0,0)"/>
   <line x1="114.488373" y1="296.160217" x2="114.554321" y2="296.109436" stroke-width="1" stroke="rgb(0,0,0)"/>
   <line x1="114.554321" y1="296.109436" x2="139.119080" y2="277.199493" stroke-width="1" stroke="rgb(0,0,0)"/>
   <line x1="114.554321" y1="289.611542" x2="119.401337" y2="285.880310" stroke-width="1" stroke="rgb(0,0,0)"/>
   <line x1="119.401337" y1="285.880310" x2="139.152039" y2="270.676208" stroke-width="1" stroke="rgb(0,0,0)"/>
   <line x1="139.152039" y1="270.676208" x2="143.999054" y2="266.944977" stroke-width="1" stroke="rgb(0,0,0)"/>
   <line x1="143.999054" y1="266.944977" x2="163.749771" y2="251.740860" stroke-width="1" stroke="rgb(0,0,0)"/>
   <line x1="163.749771" y1="251.740860" x2="168.629745" y2="247.984253" stroke-width="1" stroke="rgb(0,0,0)"/>
   <line x1="168.629745" y1="247.984253" x2="188.380463" y2="232.780151" stroke-width="1" stroke="rgb(0,0,0)"/>
   <line x1="188.380463" y1="232.780151" x2="193.227463" y2="229.048920" stroke-width="1" stroke="rgb(0,0,0)"/>
   <line x1="193.227463" y1="229.048920" x2="212.978180" y2="213.844818" stroke-width="1" stroke="rgb(0,0,0)"/>
   <line x1="212.978180" y1="213.844818" x2="226.826767" y2="224.505463" stroke-width="1" stroke="rgb(0,0,0)"/>
   <line x1="226.826767" y1="224.505463" x2="283.309204" y2="267.985657" stroke-width="1" stroke="rgb(0,0,0)"/>
   <line x1="283.309204" y1="267.985657" x2="297.157776" y2="278.646301" stroke-width="1" stroke="rgb(0,0,0)"/>
   <line x1="297.157776" y1="278.646301" x2="353.640228" y2="322.126526" stroke-width="1" stroke="rgb(0,0,0)"/>
   <line x1="353.640228" y1="322.126526" x2="367.488800" y2="332.787170" stroke-width="1" stroke="rgb(0,0,0)"/>
   <line x1="367.488800" y1="332.787170" x2="424.004211" y2="376.292755" stroke-width="1" stroke="rgb(0,0,0)"/>
   <line x1="424.004211" y1="376.292755" x2="437.852783" y2="386.953400" stroke-width="1" stroke="rgb(0,0,0)"/>
   <line x1="437.852783" y1="386.953400" x2="494.335236" y2="430.433594" stroke-width="1" stroke="rgb(0,0,0)"/>
   <line x1="494.335236" y1="430.433594" x2="508.183807" y2="441.094238" stroke-width="1" stroke="rgb(0,0,0)"/>
   <line x1="508.183807" y1="441.094238" x2="564.666260" y2="484.574463" stroke-width="1" stroke="rgb(0,0,0)"/>
   <line x1="564.666260" y1="484.574463" x2="578.514832" y2="495.235107" stroke-width="1" stroke="rgb(0,0,0)"/>
   <line x1="578.514832" y1="495.235107" x2="635.030212" y2="538.740723" stroke-width="1" stroke="rgb(0,0,0)"/>
   <line x1="635.030212" y1="538.740723" x2="630.183228" y2="542.471924" stroke-width="1" stroke="rgb(0,0,0)"/>
   <line x1="630.183228" y1="542.471924" x2="610.432495" y2="557.676025" stroke-width="1" stroke="rgb(0,0,0)"/>
   <line x1="610.432495" y1="557.676025" x2="605.585510" y2="561.407227" stroke-width="1" stroke="rgb(0,0,0)"/>
   <line x1="605.585510" y1="561.407227" x2="585.801819" y2="576.636719" stroke-width="1" stroke="rgb(0,0,0)"/>
   <line x1="585.801819" y1="576.636719" x2="580.954834" y2="580.367981" stroke-width="1" stroke="rgb(0,0,0)"/>
   <line x1="580.954834" y1="580.367981" x2="561.204102" y2="595.572083" stroke-width="1" stroke="rgb(0,0,0)"/>
   <line x1="561.204102" y1="595.572083" x2="556.357056" y2="599.303345" stroke-width="1" stroke="rgb(0,0,0)"/>
   <line x1="556.357056" y1="599.303345" x2="536.606384" y2="614.507446" stroke-width="1" stroke="rgb(0,0,0)"/>
   <line x1="536.606384" y1="614.507446" x2="531.726379" y2="618.264038" stroke-width="1" stroke="rgb(0,0,0)"/>
   <line x1="531.726379" y1="618.264038" x2="511.975677" y2="633.468140" stroke-width="1" stroke="rgb(0,0,0)"/>
   <line x1="511.975677" y1="633.468140" x2="507.128662" y2="637.199341" stroke-width="1" stroke="rgb(0,0,0)"/>
   <line x1="507.128662" y1="637.199341" x2="487.377960" y2="652.403503" stroke-width="1" stroke="rgb(0,0,0)"/>
   <line x1="487.377960" y1="652.403503" x2="473.496399" y2="641.717468" stroke-width="1" stroke="rgb(0,0,0)"/>
   <line x1="473.496399" y1="641.717468" x2="417.013977" y2="598.237244" stroke-width="1" stroke="rgb(0,0,0)"/>
   <line x1="417.013977" y1="598.237244" x2="403.132416" y2="587.551208" stroke-width="1" stroke="rgb(0,0,0)"/>
   <line x1="403.132416" y1="587.551208" x2="346.682953" y2="544.096375" stroke-width="1" stroke="rgb(0,0,0)"/>
   <line x1="346.682953" y1="544.096375" x2="332.801392" y2="533.410339" stroke-width="1" stroke="rgb(0,0,0)"/>
   <line x1="332.801392" y1="533.410339" x2="276.351929" y2="489.955505" stroke-width="1" stroke="rgb(0,0,0)"/>
   <line x1="276.351929" y1="489.955505" x2="262.470398" y2="479.269501" stroke-width="1" stroke="rgb(0,0,0)"/>
   <line x1="262.470398" y1="479.269501" x2="205.987946" y2="435.789307" stroke-width="1" stroke="rgb(0,0,0)"/>
   <line x1="205.987946" y1="435.789307" x2="192.106400" y2="425.103271" stroke-width="1" stroke="rgb(0,0,0)"/>
   <line x1="192.106400" y1="425.103271" x2="135.656921" y2="381.648438" stroke-width="1" stroke="rgb(0,0,0)"/>
   <line x1="135.656921" y1="381.648438" x2="121.775391" y2="370.962402" stroke-width="1" stroke="rgb(0,0,0)"/>
   <line x1="121.775391" y1="370.962402" x2="65.325928" y2="327.507568" stroke-width="1" stroke="rgb(0,0,0)"/>
   <line x1="65.325928" y1="327.507568" x2="70.172913" y2="323.776367" stroke-width="1" stroke="rgb(0,0,0)"/>
   <line x1="70.172913" y1="323.776367" x2="89.923645" y2="308.572266" stroke-width="1" stroke="rgb(0,0,0)"/>
   <line x1="89.923645" y1="308.572266" x2="94.770630" y2="304.841003" stroke-width="1" stroke="rgb(0,0,0)"/>
   <line x1="94.770630" y1="304.841003" x2="114.554321" y2="289.611542" stroke-width="1" stroke="rgb(0,0,0)"/>
   <line x1="75.085876" y1="313.496460" x2="89.923645" y2="302.074341" stroke-width="1" stroke="rgb(0,0,0)"/>
   <line x1="89.923645" y1="302.074341" x2="99.716553" y2="294.535736" stroke-width="1" stroke="rgb(0,0,0)"/>
   <line x1="99.716553" y1="294.535736" x2="114.554321" y2="283.113617" stroke-width="1" stroke="rgb(0,0,0)"/>
   <line x1="114.554321" y1="283.113617" x2="124.314270" y2="275.600403" stroke-width="1" stroke="rgb(0,0,0)"/>
   <line x1="124.314270" y1="275.600403" x2="139.152039" y2="264.178284" stroke-width="1" stroke="rgb(0,0,0)"/>
   <line x1="139.152039" y1="264.178284" x2="148.944977" y2="256.639679" stroke-width="1" stroke="rgb(0,0,0)"/>
   <line x1="148.944977" y1="256.639679" x2="163.749771" y2="245.242950" stroke-width="1" stroke="rgb(0,0,0)"/>
   <line x1="163.749771" y1="245.242950" x2="173.542694" y2="237.704346" stroke-width="1" stroke="rgb(0,0,0)"/>
   <line x1="173.542694" y1="237.704346" x2="188.380463" y2="226.282227" stroke-width="1" stroke="rgb(0,0,0)"/>
   <line x1="188.380463" y1="226.282227" x2="198.173386" y2="218.743622" stroke-width="1" stroke="rgb(0,0,0)"/>
   <line x1="198.173386" y1="218.743622" x2="212.978180" y2="207.346893" stroke-width="1" stroke="rgb(0,0,0)"/>
   <line x1="212.978180" y1="207.346893" x2="240.939133" y2="228.871246" stroke-width="1" stroke="rgb(0,0,0)"/>
   <line x1="240.939133" y1="228.871246" x2="283.309204" y2="261.487732" stroke-width="1" stroke="rgb(0,0,0)"/>
   <line x1="283.309204" y1="261.487732" x2="311.270142" y2="283.012085" stroke-width="1" stroke="rgb(0,0,0)"/>
   <line x1="311.270142" y1="283.012085" x2="353.640228" y2="315.628601" stroke-width="1" stroke="rgb(0,0,0)"/>
   <line x1="353.640228" y1="315.628601" x2="381.601166" y2="337.152954" stroke-width="1" stroke="rgb(0,0,0)"/>
   <line x1="381.601166" y1="337.152954" x2="424.004211" y2="369.794830" stroke-width="1" stroke="rgb(0,0,0)"/>
   <line x1="424.004211" y1="369.794830" x2="451.965149" y2="391.319183" stroke-width="1" stroke="rgb(0,0,0)"/>
   <line x1="451.965149" y1="391.319183" x2="494.335236" y2="423.935699" stroke-width="1" stroke="rgb(0,0,0)"/>
   <line x1="494.335236" y1="423.935699" x2="522.296143" y2="445.460052" stroke-width="1" stroke="rgb(0,0,0)"/>
   <line x1="522.296143" y1="445.460052" x2="564.666260" y2="478.076538" stroke-width="1" stroke="rgb(0,0,0)"/>
   <line x1="564.666260" y1="478.076538" x2="592.627197" y2="499.600891" stroke-width="1" stroke="rgb(0,0,0)"/>
   <line x1="592.627197" y1="499.600891" x2="635.030212" y2="532.242798" stroke-width="1" stroke="rgb(0,0,0)"/>
   <line x1="635.030212" y1="532.242798" x2="625.270264" y2="539.755981" stroke-width="1" stroke="rgb(0,0,0)"/>
   <line x1="625.270264" y1="539.755981" x2="610.432495" y2="551.178101" stroke-width="1" stroke="rgb(0,0,0)"/>
   <line x1="610.432495" y1="551.178101" x2="600.639587" y2="558.716675" stroke-width="1" stroke="rgb(0,0,0)"/>
   <line x1="600.639587" y1="558.716675" x2="585.801819" y2="570.138794" stroke-width="1" stroke="rgb(0,0,0)"/>
   <line x1="585.801819" y1="570.138794" x2="576.041870" y2="577.652039" stroke-width="1" stroke="rgb(0,0,0)"/>
   <line x1="576.041870" y1="577.652039" x2="561.204102" y2="589.074158" stroke-width="1" stroke="rgb(0,0,0)"/>
   <line x1="561.204102" y1="589.074158" x2="551.411133" y2="596.612793" stroke-width="1" stroke="rgb(0,0,0)"/>
   <line x1="551.411133" y1="596.612793" x2="536.606384" y2="608.009521" stroke-width="1" stroke="rgb(0,0,0)"/>
   <line x1="536.606384" y1="608.009521" x2="526.813477" y2="615.548096" stroke-width="1" stroke="rgb(0,0,0)"/>
   <line x1="526.813477" y1="615.548096" x2="511.975677" y2="626.970215" stroke-width="1" stroke="rgb(0,0,0)"/>
   <line x1="511.975677" y1="626.970215" x2="502.182739" y2="634.508789" stroke-width="1" stroke="rgb(0,0,0)"/>
   <line x1="502.182739" y1="634.508789" x2="487.377960" y2="645.905579" stroke-width="1" stroke="rgb(0,0,0)"/>
   <line x1="487.377960" y1="645.905579" x2="459.384033" y2="624.355835" stroke-width="1" stroke="rgb(0,0,0)"/>
   <line x1="459.384033" y1="624.355835" x2="417.013977" y2="591.739319" stroke-width="1" stroke="rgb(0,0,0)"/>
   <line x1="417.013977" y1="591.739319" x2="389.020050" y2="570.189575" stroke-width="1" stroke="rgb(0,0,0)"/>
   <line x1="389.020050" y1="570.189575" x2="346.682953" y2="537.598511" stroke-width="1" stroke="rgb(0,0,0)"/>
   <line x1="346.682953" y1="537.598511" x2="318.689026" y2="516.048706" stroke-width="1" stroke="rgb(0,0,0)"/>
   <line x1="318.689026" y1="516.048706" x2="276.351929" y2="483.457611" stroke-width="1" stroke="rgb(0,0,0)"/>
   <line x1="276.351929" y1="483.457611" x2="248.358017" y2="461.907867" stroke-width="1" stroke="rgb(0,0,0)"/>
   <line x1="248.358017" y1="461.907867" x2="205.987946" y2="429.291382" stroke-width="1" stroke="rgb(0,0,0)"/>
   <line x1="205.987946" y1="429.291382" x2="177.994019" y2="407.741638" stroke-width="1" stroke="rgb(0,0,0)"/>
   <line x1="177.994019" y1="407.741638" x2="135.656921" y2="375.150513" stroke-width="1" stroke="rgb(0,0,0)"/>
   <line x1="135.656921" y1="375.150513" x2="107.663025" y2="353.600769" stroke-width="1" stroke="rgb(0,0,0)"/>
   <line x1="107.663025" y1="353.600769" x2="65.325928" y2="321.009674" stroke-width="1" stroke="rgb(0,0,0)"/>
   <line x1="65.325928" y1="321.009674" x2="75.085876" y2="313.496460" stroke-width="1" stroke="rgb(0,0,0)"/>
</svg>
