<?xml version="1.0" encoding="UTF-8"?>
<!DOCTYPE svg PUBLIC "-//W3C//DTD SVG 1.1//EN" "http://www.w3.org/Graphics/SVG/1.1/DTD/svg11.dtd">
<svg preserveAspectRatio="xMidYMid meet" width="1024" height="768" viewBox="0 0 1024 768" xmlns="http://www.w3.org/2000/svg" xmlns:xlink="http://www.w3.org/1999/xlink" xmlns:rdf="http://www.w3.org/1999/02/22-rdf-syntax-ns#" xmlns:dc="http://purl.org/dc/elements/1.1/" xmlns:cc="http://web.resource.org/cc/">
 <defs>
  <marker id="arrow" markerWidth="10" markerHeight="10" refx="0" refy="3" orient="auto" markerUnits="strokeWidth" viewBox="0 0 20 20">
    <path d="M0,0 L0,6 L9,3 z" fill="#f00" />
  </marker>
</defs>
   <line x1="617.521667" y1="591.206299" x2="617.488708" y2="591.231689" stroke-width="1" stroke="rgb(0,0,0)"/>
   <line x1="617.488708" y1="591.231689" x2="599.914185" y2="604.760559" stroke-width="1" stroke="rgb(0,0,0)"/>
   <line x1="599.914185" y1="604.760559" x2="582.339661" y2="618.289429" stroke-width="1" stroke="rgb(0,0,0)"/>
   <line x1="582.339661" y1="618.289429" x2="582.306702" y2="618.314819" stroke-width="1" stroke="rgb(0,0,0)"/>
   <line x1="582.306702" y1="618.314819" x2="564.732178" y2="631.843628" stroke-width="1" stroke="rgb(0,0,0)"/>
   <line x1="564.732178" y1="631.843628" x2="564.699219" y2="631.869019" stroke-width="1" stroke="rgb(0,0,0)"/>
   <line x1="564.699219" y1="631.869019" x2="547.157715" y2="645.372559" stroke-width="1" stroke="rgb(0,0,0)"/>
   <line x1="547.157715" y1="645.372559" x2="547.124695" y2="645.397949" stroke-width="1" stroke="rgb(0,0,0)"/>
   <line x1="547.124695" y1="645.397949" x2="529.583130" y2="658.901367" stroke-width="1" stroke="rgb(0,0,0)"/>
   <line x1="529.583130" y1="658.901367" x2="459.318115" y2="604.811279" stroke-width="1" stroke="rgb(0,0,0)"/>
   <line x1="459.318115" y1="604.811279" x2="459.219177" y2="604.735168" stroke-width="1" stroke="rgb(0,0,0)"/>
   <line x1="459.219177" y1="604.735168" x2="388.987061" y2="550.670410" stroke-width="1" stroke="rgb(0,0,0)"/>
   <line x1="388.987061" y1="550.670410" x2="388.888153" y2="550.594299" stroke-width="1" stroke="rgb(0,0,0)"/>
   <line x1="388.888153" y1="550.594299" x2="318.656067" y2="496.529602" stroke-width="1" stroke="rgb(0,0,0)"/>
   <line x1="318.656067" y1="496.529602" x2="318.557129" y2="496.453430" stroke-width="1" stroke="rgb(0,0,0)"/>
   <line x1="318.557129" y1="496.453430" x2="248.226135" y2="442.414124" stroke-width="1" stroke="rgb(0,0,0)"/>
   <line x1="248.226135" y1="442.414124" x2="248.127213" y2="442.337982" stroke-width="1" stroke="rgb(0,0,0)"/>
   <line x1="248.127213" y1="442.337982" x2="177.895111" y2="388.273254" stroke-width="1" stroke="rgb(0,0,0)"/>
   <line x1="177.895111" y1="388.273254" x2="177.796204" y2="388.197113" stroke-width="1" stroke="rgb(0,0,0)"/>
   <line x1="177.796204" y1="388.197113" x2="107.564087" y2="334.132416" stroke-width="1" stroke="rgb(0,0,0)"/>
   <line x1="107.564087" y1="334.132416" x2="107.465179" y2="334.056274" stroke-width="1" stroke="rgb(0,0,0)"/>
   <line x1="107.465179" y1="334.056274" x2="125.039673" y2="320.527405" stroke-width="1" stroke="rgb(0,0,0)"/>
   <line x1="125.039673" y1="320.527405" x2="125.072662" y2="320.502014" stroke-width="1" stroke="rgb(0,0,0)"/>
   <line x1="125.072662" y1="320.502014" x2="142.647156" y2="306.973145" stroke-width="1" stroke="rgb(0,0,0)"/>
   <line x1="142.647156" y1="306.973145" x2="160.221680" y2="293.444275" stroke-width="1" stroke="rgb(0,0,0)"/>
   <line x1="160.221680" y1="293.444275" x2="160.254639" y2="293.418915" stroke-width="1" stroke="rgb(0,0,0)"/>
   <line x1="160.254639" y1="293.418915" x2="177.829163" y2="279.890045" stroke-width="1" stroke="rgb(0,0,0)"/>
   <line x1="177.829163" y1="279.890045" x2="177.862137" y2="279.864655" stroke-width="1" stroke="rgb(0,0,0)"/>
   <line x1="177.862137" y1="279.864655" x2="195.403671" y2="266.361176" stroke-width="1" stroke="rgb(0,0,0)"/>
   <line x1="195.403671" y1="266.361176" x2="195.436646" y2="266.335815" stroke-width="1" stroke="rgb(0,0,0)"/>
   <line x1="195.436646" y1="266.335815" x2="212.978180" y2="252.832321" stroke-width="1" stroke="rgb(0,0,0)"/>
   <line x1="212.978180" y1="252.832321" x2="283.177307" y2="306.871643" stroke-width="1" stroke="rgb(0,0,0)"/>
   <line x1="283.177307" y1="306.871643" x2="283.309204" y2="306.973175" stroke-width="1" stroke="rgb(0,0,0)"/>
   <line x1="283.309204" y1="306.973175" x2="353.508331" y2="361.012482" stroke-width="1" stroke="rgb(0,0,0)"/>
   <line x1="353.508331" y1="361.012482" x2="353.640228" y2="361.114014" stroke-width="1" stroke="rgb(0,0,0)"/>
   <line x1="353.640228" y1="361.114014" x2="423.872314" y2="415.178741" stroke-width="1" stroke="rgb(0,0,0)"/>
   <line x1="423.872314" y1="415.178741" x2="424.004211" y2="415.280273" stroke-width="1" stroke="rgb(0,0,0)"/>
   <line x1="424.004211" y1="415.280273" x2="494.203339" y2="469.319580" stroke-width="1" stroke="rgb(0,0,0)"/>
   <line x1="494.203339" y1="469.319580" x2="494.335236" y2="469.421112" stroke-width="1" stroke="rgb(0,0,0)"/>
   <line x1="494.335236" y1="469.421112" x2="564.534363" y2="523.460449" stroke-width="1" stroke="rgb(0,0,0)"/>
   <line x1="564.534363" y1="523.460449" x2="564.666260" y2="523.561951" stroke-width="1" stroke="rgb(0,0,0)"/>
   <line x1="564.666260" y1="523.561951" x2="634.898315" y2="577.626709" stroke-width="1" stroke="rgb(0,0,0)"/>
   <line x1="634.898315" y1="577.626709" x2="635.030212" y2="577.728210" stroke-width="1" stroke="rgb(0,0,0)"/>
   <line x1="635.030212" y1="577.728210" x2="617.521667" y2="591.206299" stroke-width="1" stroke="rgb(0,0,0)"/>
   <line x1="631.601074" y1="573.870056" x2="617.488708" y2="584.733765" stroke-width="1" stroke="rgb(0,0,0)"/>
   <line x1="617.488708" y1="584.733765" x2="614.026550" y2="587.398926" stroke-width="1" stroke="rgb(0,0,0)"/>
   <line x1="614.026550" y1="587.398926" x2="599.914185" y2="598.262634" stroke-width="1" stroke="rgb(0,0,0)"/>
   <line x1="599.914185" y1="598.262634" x2="596.419067" y2="600.953186" stroke-width="1" stroke="rgb(0,0,0)"/>
   <line x1="596.419067" y1="600.953186" x2="582.306702" y2="611.816895" stroke-width="1" stroke="rgb(0,0,0)"/>
   <line x1="582.306702" y1="611.816895" x2="578.844543" y2="614.482056" stroke-width="1" stroke="rgb(0,0,0)"/>
   <line x1="578.844543" y1="614.482056" x2="564.699219" y2="625.371094" stroke-width="1" stroke="rgb(0,0,0)"/>
   <line x1="564.699219" y1="625.371094" x2="561.237061" y2="628.036255" stroke-width="1" stroke="rgb(0,0,0)"/>
   <line x1="561.237061" y1="628.036255" x2="547.124695" y2="638.900024" stroke-width="1" stroke="rgb(0,0,0)"/>
   <line x1="547.124695" y1="638.900024" x2="543.662537" y2="641.565186" stroke-width="1" stroke="rgb(0,0,0)"/>
   <line x1="543.662537" y1="641.565186" x2="529.583130" y2="652.403442" stroke-width="1" stroke="rgb(0,0,0)"/>
   <line x1="529.583130" y1="652.403442" x2="515.701599" y2="641.717407" stroke-width="1" stroke="rgb(0,0,0)"/>
   <line x1="515.701599" y1="641.717407" x2="459.219177" y2="598.237244" stroke-width="1" stroke="rgb(0,0,0)"/>
   <line x1="459.219177" y1="598.237244" x2="445.337616" y2="587.551208" stroke-width="1" stroke="rgb(0,0,0)"/>
   <line x1="445.337616" y1="587.551208" x2="388.888153" y2="544.096375" stroke-width="1" stroke="rgb(0,0,0)"/>
   <line x1="388.888153" y1="544.096375" x2="375.006592" y2="533.410339" stroke-width="1" stroke="rgb(0,0,0)"/>
   <line x1="375.006592" y1="533.410339" x2="318.557129" y2="489.955536" stroke-width="1" stroke="rgb(0,0,0)"/>
   <line x1="318.557129" y1="489.955536" x2="304.642609" y2="479.294891" stroke-width="1" stroke="rgb(0,0,0)"/>
   <line x1="304.642609" y1="479.294891" x2="248.127213" y2="435.840057" stroke-width="1" stroke="rgb(0,0,0)"/>
   <line x1="248.127213" y1="435.840057" x2="234.245651" y2="425.154022" stroke-width="1" stroke="rgb(0,0,0)"/>
   <line x1="234.245651" y1="425.154022" x2="177.796204" y2="381.699219" stroke-width="1" stroke="rgb(0,0,0)"/>
   <line x1="177.796204" y1="381.699219" x2="163.914642" y2="371.013184" stroke-width="1" stroke="rgb(0,0,0)"/>
   <line x1="163.914642" y1="371.013184" x2="107.465179" y2="327.558350" stroke-width="1" stroke="rgb(0,0,0)"/>
   <line x1="107.465179" y1="327.558350" x2="110.960297" y2="324.867798" stroke-width="1" stroke="rgb(0,0,0)"/>
   <line x1="110.960297" y1="324.867798" x2="125.072662" y2="314.004089" stroke-width="1" stroke="rgb(0,0,0)"/>
   <line x1="125.072662" y1="314.004089" x2="128.534790" y2="311.338928" stroke-width="1" stroke="rgb(0,0,0)"/>
   <line x1="128.534790" y1="311.338928" x2="142.647156" y2="300.475250" stroke-width="1" stroke="rgb(0,0,0)"/>
   <line x1="142.647156" y1="300.475250" x2="146.142273" y2="297.784698" stroke-width="1" stroke="rgb(0,0,0)"/>
   <line x1="146.142273" y1="297.784698" x2="160.254639" y2="286.920990" stroke-width="1" stroke="rgb(0,0,0)"/>
   <line x1="160.254639" y1="286.920990" x2="163.716797" y2="284.255829" stroke-width="1" stroke="rgb(0,0,0)"/>
   <line x1="163.716797" y1="284.255829" x2="177.862137" y2="273.366760" stroke-width="1" stroke="rgb(0,0,0)"/>
   <line x1="177.862137" y1="273.366760" x2="181.324280" y2="270.701599" stroke-width="1" stroke="rgb(0,0,0)"/>
   <line x1="181.324280" y1="270.701599" x2="195.436646" y2="259.837891" stroke-width="1" stroke="rgb(0,0,0)"/>
   <line x1="195.436646" y1="259.837891" x2="198.898788" y2="257.172729" stroke-width="1" stroke="rgb(0,0,0)"/>
   <line x1="198.898788" y1="257.172729" x2="212.978180" y2="246.334412" stroke-width="1" stroke="rgb(0,0,0)"/>
   <line x1="212.978180" y1="246.334412" x2="226.826767" y2="256.995056" stroke-width="1" stroke="rgb(0,0,0)"/>
   <line x1="226.826767" y1="256.995056" x2="283.309204" y2="300.475250" stroke-width="1" stroke="rgb(0,0,0)"/>
   <line x1="283.309204" y1="300.475250" x2="297.157776" y2="311.135895" stroke-width="1" stroke="rgb(0,0,0)"/>
   <line x1="297.157776" y1="311.135895" x2="353.640228" y2="354.616089" stroke-width="1" stroke="rgb(0,0,0)"/>
   <line x1="353.640228" y1="354.616089" x2="367.488800" y2="365.276764" stroke-width="1" stroke="rgb(0,0,0)"/>
   <line x1="367.488800" y1="365.276764" x2="424.004211" y2="408.782349" stroke-width="1" stroke="rgb(0,0,0)"/>
   <line x1="424.004211" y1="408.782349" x2="437.852783" y2="419.442993" stroke-width="1" stroke="rgb(0,0,0)"/>
   <line x1="437.852783" y1="419.442993" x2="494.335236" y2="462.923187" stroke-width="1" stroke="rgb(0,0,0)"/>
   <line x1="494.335236" y1="462.923187" x2="508.183807" y2="473.583832" stroke-width="1" stroke="rgb(0,0,0)"/>
   <line x1="508.183807" y1="473.583832" x2="564.666260" y2="517.064026" stroke-width="1" stroke="rgb(0,0,0)"/>
   <line x1="564.666260" y1="517.064026" x2="578.514832" y2="527.724670" stroke-width="1" stroke="rgb(0,0,0)"/>
   <line x1="578.514832" y1="527.724670" x2="635.030212" y2="571.230286" stroke-width="1" stroke="rgb(0,0,0)"/>
   <line x1="635.030212" y1="571.230286" x2="631.601074" y2="573.870056" stroke-width="1" stroke="rgb(0,0,0)"/>
   <line x1="617.488708" y1="578.235840" x2="610.498474" y2="583.616943" stroke-width="1" stroke="rgb(0,0,0)"/>
   <line x1="610.498474" y1="583.616943" x2="599.914185" y2="591.764709" stroke-width="1" stroke="rgb(0,0,0)"/>
   <line x1="599.914185" y1="591.764709" x2="592.890991" y2="597.171204" stroke-width="1" stroke="rgb(0,0,0)"/>
   <line x1="592.890991" y1="597.171204" x2="582.306702" y2="605.318970" stroke-width="1" stroke="rgb(0,0,0)"/>
   <line x1="582.306702" y1="605.318970" x2="575.316467" y2="610.700073" stroke-width="1" stroke="rgb(0,0,0)"/>
   <line x1="575.316467" y1="610.700073" x2="564.699219" y2="618.873230" stroke-width="1" stroke="rgb(0,0,0)"/>
   <line x1="564.699219" y1="618.873230" x2="557.708984" y2="624.254272" stroke-width="1" stroke="rgb(0,0,0)"/>
   <line x1="557.708984" y1="624.254272" x2="547.124695" y2="632.402100" stroke-width="1" stroke="rgb(0,0,0)"/>
   <line x1="547.124695" y1="632.402100" x2="540.134460" y2="637.783142" stroke-width="1" stroke="rgb(0,0,0)"/>
   <line x1="540.134460" y1="637.783142" x2="529.583130" y2="645.905579" stroke-width="1" stroke="rgb(0,0,0)"/>
   <line x1="529.583130" y1="645.905579" x2="501.589233" y2="624.355835" stroke-width="1" stroke="rgb(0,0,0)"/>
   <line x1="501.589233" y1="624.355835" x2="459.219177" y2="591.739319" stroke-width="1" stroke="rgb(0,0,0)"/>
   <line x1="459.219177" y1="591.739319" x2="431.225250" y2="570.189575" stroke-width="1" stroke="rgb(0,0,0)"/>
   <line x1="431.225250" y1="570.189575" x2="388.888153" y2="537.598450" stroke-width="1" stroke="rgb(0,0,0)"/>
   <line x1="388.888153" y1="537.598450" x2="360.894226" y2="516.048706" stroke-width="1" stroke="rgb(0,0,0)"/>
   <line x1="360.894226" y1="516.048706" x2="318.557129" y2="483.457611" stroke-width="1" stroke="rgb(0,0,0)"/>
   <line x1="318.557129" y1="483.457611" x2="290.530243" y2="461.933258" stroke-width="1" stroke="rgb(0,0,0)"/>
   <line x1="290.530243" y1="461.933258" x2="248.127213" y2="429.342133" stroke-width="1" stroke="rgb(0,0,0)"/>
   <line x1="248.127213" y1="429.342133" x2="220.133286" y2="407.792419" stroke-width="1" stroke="rgb(0,0,0)"/>
   <line x1="220.133286" y1="407.792419" x2="177.796204" y2="375.201294" stroke-width="1" stroke="rgb(0,0,0)"/>
   <line x1="177.796204" y1="375.201294" x2="149.802277" y2="353.651550" stroke-width="1" stroke="rgb(0,0,0)"/>
   <line x1="149.802277" y1="353.651550" x2="107.465179" y2="321.060425" stroke-width="1" stroke="rgb(0,0,0)"/>
   <line x1="107.465179" y1="321.060425" x2="114.488373" y2="315.653961" stroke-width="1" stroke="rgb(0,0,0)"/>
   <line x1="114.488373" y1="315.653961" x2="125.072662" y2="307.506195" stroke-width="1" stroke="rgb(0,0,0)"/>
   <line x1="125.072662" y1="307.506195" x2="132.062897" y2="302.125092" stroke-width="1" stroke="rgb(0,0,0)"/>
   <line x1="132.062897" y1="302.125092" x2="142.647156" y2="293.977325" stroke-width="1" stroke="rgb(0,0,0)"/>
   <line x1="142.647156" y1="293.977325" x2="149.670380" y2="288.570862" stroke-width="1" stroke="rgb(0,0,0)"/>
   <line x1="149.670380" y1="288.570862" x2="160.254639" y2="280.423065" stroke-width="1" stroke="rgb(0,0,0)"/>
   <line x1="160.254639" y1="280.423065" x2="167.244888" y2="275.041992" stroke-width="1" stroke="rgb(0,0,0)"/>
   <line x1="167.244888" y1="275.041992" x2="177.862137" y2="266.868835" stroke-width="1" stroke="rgb(0,0,0)"/>
   <line x1="177.862137" y1="266.868835" x2="184.852371" y2="261.487732" stroke-width="1" stroke="rgb(0,0,0)"/>
   <line x1="184.852371" y1="261.487732" x2="195.436646" y2="253.339966" stroke-width="1" stroke="rgb(0,0,0)"/>
   <line x1="195.436646" y1="253.339966" x2="202.426880" y2="247.958878" stroke-width="1" stroke="rgb(0,0,0)"/>
   <line x1="202.426880" y1="247.958878" x2="212.978180" y2="239.836487" stroke-width="1" stroke="rgb(0,0,0)"/>
   <line x1="212.978180" y1="239.836487" x2="240.939133" y2="261.360840" stroke-width="1" stroke="rgb(0,0,0)"/>
   <line x1="240.939133" y1="261.360840" x2="283.309204" y2="293.977325" stroke-width="1" stroke="rgb(0,0,0)"/>
   <line x1="283.309204" y1="293.977325" x2="311.270142" y2="315.501678" stroke-width="1" stroke="rgb(0,0,0)"/>
   <line x1="311.270142" y1="315.501678" x2="353.640228" y2="348.118195" stroke-width="1" stroke="rgb(0,0,0)"/>
   <line x1="353.640228" y1="348.118195" x2="381.601166" y2="369.642548" stroke-width="1" stroke="rgb(0,0,0)"/>
   <line x1="381.601166" y1="369.642548" x2="424.004211" y2="402.284424" stroke-width="1" stroke="rgb(0,0,0)"/>
   <line x1="424.004211" y1="402.284424" x2="451.965149" y2="423.808777" stroke-width="1" stroke="rgb(0,0,0)"/>
   <line x1="451.965149" y1="423.808777" x2="494.335236" y2="456.425293" stroke-width="1" stroke="rgb(0,0,0)"/>
   <line x1="494.335236" y1="456.425293" x2="522.296143" y2="477.949646" stroke-width="1" stroke="rgb(0,0,0)"/>
   <line x1="522.296143" y1="477.949646" x2="564.666260" y2="510.566132" stroke-width="1" stroke="rgb(0,0,0)"/>
   <line x1="564.666260" y1="510.566132" x2="592.627197" y2="532.090454" stroke-width="1" stroke="rgb(0,0,0)"/>
   <line x1="592.627197" y1="532.090454" x2="635.030212" y2="564.732361" stroke-width="1" stroke="rgb(0,0,0)"/>
   <line x1="635.030212" y1="564.732361" x2="628.072998" y2="570.088074" stroke-width="1" stroke="rgb(0,0,0)"/>
   <line x1="628.072998" y1="570.088074" x2="617.488708" y2="578.235840" stroke-width="1" stroke="rgb(0,0,0)"/>
   <line x1="624.544861" y1="566.306091" x2="617.488708" y2="571.737915" stroke-width="1" stroke="rgb(0,0,0)"/>
   <line x1="617.488708" y1="571.737915" x2="606.970337" y2="579.834961" stroke-width="1" stroke="rgb(0,0,0)"/>
   <line x1="606.970337" y1="579.834961" x2="599.914185" y2="585.266846" stroke-width="1" stroke="rgb(0,0,0)"/>
   <line x1="599.914185" y1="585.266846" x2="589.395874" y2="593.363770" stroke-width="1" stroke="rgb(0,0,0)"/>
   <line x1="589.395874" y1="593.363770" x2="582.306702" y2="598.821045" stroke-width="1" stroke="rgb(0,0,0)"/>
   <line x1="582.306702" y1="598.821045" x2="571.788330" y2="606.918091" stroke-width="1" stroke="rgb(0,0,0)"/>
   <line x1="571.788330" y1="606.918091" x2="564.699219" y2="612.375305" stroke-width="1" stroke="rgb(0,0,0)"/>
   <line x1="564.699219" y1="612.375305" x2="554.213867" y2="620.446899" stroke-width="1" stroke="rgb(0,0,0)"/>
   <line x1="554.213867" y1="620.446899" x2="547.124695" y2="625.904175" stroke-width="1" stroke="rgb(0,0,0)"/>
   <line x1="547.124695" y1="625.904175" x2="536.639343" y2="633.975830" stroke-width="1" stroke="rgb(0,0,0)"/>
   <line x1="536.639343" y1="633.975830" x2="529.583130" y2="639.407654" stroke-width="1" stroke="rgb(0,0,0)"/>
   <line x1="529.583130" y1="639.407654" x2="487.509857" y2="607.019592" stroke-width="1" stroke="rgb(0,0,0)"/>
   <line x1="487.509857" y1="607.019592" x2="459.219177" y2="585.241394" stroke-width="1" stroke="rgb(0,0,0)"/>
   <line x1="459.219177" y1="585.241394" x2="417.178833" y2="552.878723" stroke-width="1" stroke="rgb(0,0,0)"/>
   <line x1="417.178833" y1="552.878723" x2="388.888153" y2="531.100586" stroke-width="1" stroke="rgb(0,0,0)"/>
   <line x1="388.888153" y1="531.100586" x2="346.847809" y2="498.737854" stroke-width="1" stroke="rgb(0,0,0)"/>
   <line x1="346.847809" y1="498.737854" x2="318.557129" y2="476.959686" stroke-width="1" stroke="rgb(0,0,0)"/>
   <line x1="318.557129" y1="476.959686" x2="276.450867" y2="444.597015" stroke-width="1" stroke="rgb(0,0,0)"/>
   <line x1="276.450867" y1="444.597015" x2="248.127213" y2="422.844238" stroke-width="1" stroke="rgb(0,0,0)"/>
   <line x1="248.127213" y1="422.844238" x2="206.086868" y2="390.481567" stroke-width="1" stroke="rgb(0,0,0)"/>
   <line x1="206.086868" y1="390.481567" x2="177.796204" y2="368.703369" stroke-width="1" stroke="rgb(0,0,0)"/>
   <line x1="177.796204" y1="368.703369" x2="135.755859" y2="336.340698" stroke-width="1" stroke="rgb(0,0,0)"/>
   <line x1="135.755859" y1="336.340698" x2="107.465179" y2="314.562500" stroke-width="1" stroke="rgb(0,0,0)"/>
   <line x1="107.465179" y1="314.562500" x2="117.983490" y2="306.465515" stroke-width="1" stroke="rgb(0,0,0)"/>
   <line x1="117.983490" y1="306.465515" x2="125.072662" y2="301.008270" stroke-width="1" stroke="rgb(0,0,0)"/>
   <line x1="125.072662" y1="301.008270" x2="135.590973" y2="292.911255" stroke-width="1" stroke="rgb(0,0,0)"/>
   <line x1="135.590973" y1="292.911255" x2="142.647156" y2="287.479401" stroke-width="1" stroke="rgb(0,0,0)"/>
   <line x1="142.647156" y1="287.479401" x2="153.165497" y2="279.382385" stroke-width="1" stroke="rgb(0,0,0)"/>
   <line x1="153.165497" y1="279.382385" x2="160.254639" y2="273.925171" stroke-width="1" stroke="rgb(0,0,0)"/>
   <line x1="160.254639" y1="273.925171" x2="170.772980" y2="265.828156" stroke-width="1" stroke="rgb(0,0,0)"/>
   <line x1="170.772980" y1="265.828156" x2="177.862137" y2="260.370911" stroke-width="1" stroke="rgb(0,0,0)"/>
   <line x1="177.862137" y1="260.370911" x2="188.347488" y2="252.299286" stroke-width="1" stroke="rgb(0,0,0)"/>
   <line x1="188.347488" y1="252.299286" x2="195.436646" y2="246.842041" stroke-width="1" stroke="rgb(0,0,0)"/>
   <line x1="195.436646" y1="246.842041" x2="205.921997" y2="238.770416" stroke-width="1" stroke="rgb(0,0,0)"/>
   <line x1="205.921997" y1="238.770416" x2="212.978180" y2="233.338562" stroke-width="1" stroke="rgb(0,0,0)"/>
   <line x1="212.978180" y1="233.338562" x2="255.018524" y2="265.701233" stroke-width="1" stroke="rgb(0,0,0)"/>
   <line x1="255.018524" y1="265.701233" x2="283.309204" y2="287.479431" stroke-width="1" stroke="rgb(0,0,0)"/>
   <line x1="283.309204" y1="287.479431" x2="325.349548" y2="319.842102" stroke-width="1" stroke="rgb(0,0,0)"/>
   <line x1="325.349548" y1="319.842102" x2="353.640228" y2="341.620270" stroke-width="1" stroke="rgb(0,0,0)"/>
   <line x1="353.640228" y1="341.620270" x2="395.680573" y2="373.982941" stroke-width="1" stroke="rgb(0,0,0)"/>
   <line x1="395.680573" y1="373.982941" x2="424.004211" y2="395.786499" stroke-width="1" stroke="rgb(0,0,0)"/>
   <line x1="424.004211" y1="395.786499" x2="466.044556" y2="428.149170" stroke-width="1" stroke="rgb(0,0,0)"/>
   <line x1="466.044556" y1="428.149170" x2="494.335236" y2="449.927368" stroke-width="1" stroke="rgb(0,0,0)"/>
   <line x1="494.335236" y1="449.927368" x2="536.375549" y2="482.290039" stroke-width="1" stroke="rgb(0,0,0)"/>
   <line x1="536.375549" y1="482.290039" x2="564.666260" y2="504.068207" stroke-width="1" stroke="rgb(0,0,0)"/>
   <line x1="564.666260" y1="504.068207" x2="606.706604" y2="536.430908" stroke-width="1" stroke="rgb(0,0,0)"/>
   <line x1="606.706604" y1="536.430908" x2="635.030212" y2="558.234497" stroke-width="1" stroke="rgb(0,0,0)"/>
   <line x1="635.030212" y1="558.234497" x2="624.544861" y2="566.306091" stroke-width="1" stroke="rgb(0,0,0)"/>
   <line x1="621.049744" y1="562.498718" x2="617.488708" y2="565.239990" stroke-width="1" stroke="rgb(0,0,0)"/>
   <line x1="617.488708" y1="565.239990" x2="603.475220" y2="576.027588" stroke-width="1" stroke="rgb(0,0,0)"/>
   <line x1="603.475220" y1="576.027588" x2="599.914185" y2="578.768921" stroke-width="1" stroke="rgb(0,0,0)"/>
   <line x1="599.914185" y1="578.768921" x2="585.867798" y2="589.581787" stroke-width="1" stroke="rgb(0,0,0)"/>
   <line x1="585.867798" y1="589.581787" x2="582.306702" y2="592.323120" stroke-width="1" stroke="rgb(0,0,0)"/>
   <line x1="582.306702" y1="592.323120" x2="568.293213" y2="603.110718" stroke-width="1" stroke="rgb(0,0,0)"/>
   <line x1="568.293213" y1="603.110718" x2="564.699219" y2="605.877380" stroke-width="1" stroke="rgb(0,0,0)"/>
   <line x1="564.699219" y1="605.877380" x2="550.685791" y2="616.664917" stroke-width="1" stroke="rgb(0,0,0)"/>
   <line x1="550.685791" y1="616.664917" x2="547.124695" y2="619.406250" stroke-width="1" stroke="rgb(0,0,0)"/>
   <line x1="547.124695" y1="619.406250" x2="533.144226" y2="630.168457" stroke-width="1" stroke="rgb(0,0,0)"/>
   <line x1="533.144226" y1="630.168457" x2="529.583130" y2="632.909729" stroke-width="1" stroke="rgb(0,0,0)"/>
   <line x1="529.583130" y1="632.909729" x2="473.463440" y2="589.708740" stroke-width="1" stroke="rgb(0,0,0)"/>
   <line x1="473.463440" y1="589.708740" x2="459.219177" y2="578.743469" stroke-width="1" stroke="rgb(0,0,0)"/>
   <line x1="459.219177" y1="578.743469" x2="403.132416" y2="535.567871" stroke-width="1" stroke="rgb(0,0,0)"/>
   <line x1="403.132416" y1="535.567871" x2="388.888153" y2="524.602661" stroke-width="1" stroke="rgb(0,0,0)"/>
   <line x1="388.888153" y1="524.602661" x2="332.801392" y2="481.427002" stroke-width="1" stroke="rgb(0,0,0)"/>
   <line x1="332.801392" y1="481.427002" x2="318.557129" y2="470.461792" stroke-width="1" stroke="rgb(0,0,0)"/>
   <line x1="318.557129" y1="470.461792" x2="262.404419" y2="427.286163" stroke-width="1" stroke="rgb(0,0,0)"/>
   <line x1="262.404419" y1="427.286163" x2="248.127213" y2="416.346313" stroke-width="1" stroke="rgb(0,0,0)"/>
   <line x1="248.127213" y1="416.346313" x2="192.040451" y2="373.170685" stroke-width="1" stroke="rgb(0,0,0)"/>
   <line x1="192.040451" y1="373.170685" x2="177.796204" y2="362.205444" stroke-width="1" stroke="rgb(0,0,0)"/>
   <line x1="177.796204" y1="362.205444" x2="121.709442" y2="319.029846" stroke-width="1" stroke="rgb(0,0,0)"/>
   <line x1="121.709442" y1="319.029846" x2="107.465179" y2="308.064606" stroke-width="1" stroke="rgb(0,0,0)"/>
   <line x1="107.465179" y1="308.064606" x2="121.511597" y2="297.251648" stroke-width="1" stroke="rgb(0,0,0)"/>
   <line x1="121.511597" y1="297.251648" x2="125.072662" y2="294.510345" stroke-width="1" stroke="rgb(0,0,0)"/>
   <line x1="125.072662" y1="294.510345" x2="139.086090" y2="283.722778" stroke-width="1" stroke="rgb(0,0,0)"/>
   <line x1="139.086090" y1="283.722778" x2="142.647156" y2="280.981506" stroke-width="1" stroke="rgb(0,0,0)"/>
   <line x1="142.647156" y1="280.981506" x2="156.693588" y2="270.168549" stroke-width="1" stroke="rgb(0,0,0)"/>
   <line x1="156.693588" y1="270.168549" x2="160.254639" y2="267.427246" stroke-width="1" stroke="rgb(0,0,0)"/>
   <line x1="160.254639" y1="267.427246" x2="174.268097" y2="256.639679" stroke-width="1" stroke="rgb(0,0,0)"/>
   <line x1="174.268097" y1="256.639679" x2="177.862137" y2="253.872986" stroke-width="1" stroke="rgb(0,0,0)"/>
   <line x1="177.862137" y1="253.872986" x2="191.875580" y2="243.085434" stroke-width="1" stroke="rgb(0,0,0)"/>
   <line x1="191.875580" y1="243.085434" x2="195.436646" y2="240.344131" stroke-width="1" stroke="rgb(0,0,0)"/>
   <line x1="195.436646" y1="240.344131" x2="209.417114" y2="229.581955" stroke-width="1" stroke="rgb(0,0,0)"/>
   <line x1="209.417114" y1="229.581955" x2="212.978180" y2="226.840652" stroke-width="1" stroke="rgb(0,0,0)"/>
   <line x1="212.978180" y1="226.840652" x2="269.031982" y2="269.990875" stroke-width="1" stroke="rgb(0,0,0)"/>
   <line x1="269.031982" y1="269.990875" x2="283.309204" y2="280.981506" stroke-width="1" stroke="rgb(0,0,0)"/>
   <line x1="283.309204" y1="280.981506" x2="339.362976" y2="324.131744" stroke-width="1" stroke="rgb(0,0,0)"/>
   <line x1="339.362976" y1="324.131744" x2="353.640228" y2="335.122345" stroke-width="1" stroke="rgb(0,0,0)"/>
   <line x1="353.640228" y1="335.122345" x2="409.726990" y2="378.297974" stroke-width="1" stroke="rgb(0,0,0)"/>
   <line x1="409.726990" y1="378.297974" x2="424.004211" y2="389.288605" stroke-width="1" stroke="rgb(0,0,0)"/>
   <line x1="424.004211" y1="389.288605" x2="480.057983" y2="432.438812" stroke-width="1" stroke="rgb(0,0,0)"/>
   <line x1="480.057983" y1="432.438812" x2="494.335236" y2="443.429443" stroke-width="1" stroke="rgb(0,0,0)"/>
   <line x1="494.335236" y1="443.429443" x2="550.389038" y2="486.579681" stroke-width="1" stroke="rgb(0,0,0)"/>
   <line x1="550.389038" y1="486.579681" x2="564.666260" y2="497.570312" stroke-width="1" stroke="rgb(0,0,0)"/>
   <line x1="564.666260" y1="497.570312" x2="620.752991" y2="540.745911" stroke-width="1" stroke="rgb(0,0,0)"/>
   <line x1="620.752991" y1="540.745911" x2="635.030212" y2="551.736572" stroke-width="1" stroke="rgb(0,0,0)"/>
   <line x1="635.030212" y1="551.736572" x2="621.049744" y2="562.498718" stroke-width="1" stroke="rgb(0,0,0)"/>
   <line x1="617.488708" y1="558.742065" x2="599.914185" y2="572.270996" stroke-width="1" stroke="rgb(0,0,0)"/>
   <line x1="599.914185" y1="572.270996" x2="582.339661" y2="585.799805" stroke-width="1" stroke="rgb(0,0,0)"/>
   <line x1="582.339661" y1="585.799805" x2="582.306702" y2="585.825195" stroke-width="1" stroke="rgb(0,0,0)"/>
   <line x1="582.306702" y1="585.825195" x2="564.732178" y2="599.354065" stroke-width="1" stroke="rgb(0,0,0)"/>
   <line x1="564.732178" y1="599.354065" x2="564.699219" y2="599.379456" stroke-width="1" stroke="rgb(0,0,0)"/>
   <line x1="564.699219" y1="599.379456" x2="547.157715" y2="612.882935" stroke-width="1" stroke="rgb(0,0,0)"/>
   <line x1="547.157715" y1="612.882935" x2="547.124695" y2="612.908325" stroke-width="1" stroke="rgb(0,0,0)"/>
   <line x1="547.124695" y1="612.908325" x2="529.583130" y2="626.411804" stroke-width="1" stroke="rgb(0,0,0)"/>
   <line x1="529.583130" y1="626.411804" x2="459.318115" y2="572.321716" stroke-width="1" stroke="rgb(0,0,0)"/>
   <line x1="459.318115" y1="572.321716" x2="459.219177" y2="572.245605" stroke-width="1" stroke="rgb(0,0,0)"/>
   <line x1="459.219177" y1="572.245605" x2="388.987061" y2="518.180847" stroke-width="1" stroke="rgb(0,0,0)"/>
   <line x1="388.987061" y1="518.180847" x2="388.888153" y2="518.104736" stroke-width="1" stroke="rgb(0,0,0)"/>
   <line x1="388.888153" y1="518.104736" x2="318.656067" y2="464.040009" stroke-width="1" stroke="rgb(0,0,0)"/>
   <line x1="318.656067" y1="464.040009" x2="318.557129" y2="463.963867" stroke-width="1" stroke="rgb(0,0,0)"/>
   <line x1="318.557129" y1="463.963867" x2="248.226135" y2="409.924530" stroke-width="1" stroke="rgb(0,0,0)"/>
   <line x1="248.226135" y1="409.924530" x2="248.127213" y2="409.848389" stroke-width="1" stroke="rgb(0,0,0)"/>
   <line x1="248.127213" y1="409.848389" x2="177.895111" y2="355.783691" stroke-width="1" stroke="rgb(0,0,0)"/>
   <line x1="177.895111" y1="355.783691" x2="177.796204" y2="355.707520" stroke-width="1" stroke="rgb(0,0,0)"/>
   <line x1="177.796204" y1="355.707520" x2="107.564087" y2="301.642822" stroke-width="1" stroke="rgb(0,0,0)"/>
   <line x1="107.564087" y1="301.642822" x2="107.465179" y2="301.566681" stroke-width="1" stroke="rgb(0,0,0)"/>
   <line x1="107.465179" y1="301.566681" x2="125.039673" y2="288.037811" stroke-width="1" stroke="rgb(0,0,0)"/>
   <line x1="125.039673" y1="288.037811" x2="125.072662" y2="288.012451" stroke-width="1" stroke="rgb(0,0,0)"/>
   <line x1="125.072662" y1="288.012451" x2="142.647156" y2="274.483582" stroke-width="1" stroke="rgb(0,0,0)"/>
   <line x1="142.647156" y1="274.483582" x2="160.221680" y2="260.954712" stroke-width="1" stroke="rgb(0,0,0)"/>
   <line x1="160.221680" y1="260.954712" x2="160.254639" y2="260.929321" stroke-width="1" stroke="rgb(0,0,0)"/>
   <line x1="160.254639" y1="260.929321" x2="177.829163" y2="247.400452" stroke-width="1" stroke="rgb(0,0,0)"/>
   <line x1="177.829163" y1="247.400452" x2="177.862137" y2="247.375076" stroke-width="1" stroke="rgb(0,0,0)"/>
   <line x1="177.862137" y1="247.375076" x2="195.403671" y2="233.871582" stroke-width="1" stroke="rgb(0,0,0)"/>
   <line x1="195.403671" y1="233.871582" x2="195.436646" y2="233.846222" stroke-width="1" stroke="rgb(0,0,0)"/>
   <line x1="195.436646" y1="233.846222" x2="212.978180" y2="220.342743" stroke-width="1" stroke="rgb(0,0,0)"/>
   <line x1="212.978180" y1="220.342743" x2="283.177307" y2="274.382050" stroke-width="1" stroke="rgb(0,0,0)"/>
   <line x1="283.177307" y1="274.382050" x2="283.309204" y2="274.483582" stroke-width="1" stroke="rgb(0,0,0)"/>
   <line x1="283.309204" y1="274.483582" x2="353.508331" y2="328.522888" stroke-width="1" stroke="rgb(0,0,0)"/>
   <line x1="353.508331" y1="328.522888" x2="353.640228" y2="328.624451" stroke-width="1" stroke="rgb(0,0,0)"/>
   <line x1="353.640228" y1="328.624451" x2="423.872314" y2="382.689148" stroke-width="1" stroke="rgb(0,0,0)"/>
   <line x1="423.872314" y1="382.689148" x2="424.004211" y2="382.790680" stroke-width="1" stroke="rgb(0,0,0)"/>
   <line x1="424.004211" y1="382.790680" x2="494.203339" y2="436.829987" stroke-width="1" stroke="rgb(0,0,0)"/>
   <line x1="494.203339" y1="436.829987" x2="494.335236" y2="436.931519" stroke-width="1" stroke="rgb(0,0,0)"/>
   <line x1="494.335236" y1="436.931519" x2="564.534363" y2="490.970856" stroke-width="1" stroke="rgb(0,0,0)"/>
   <line x1="564.534363" y1="490.970856" x2="564.666260" y2="491.072388" stroke-width="1" stroke="rgb(0,0,0)"/>
   <line x1="564.666260" y1="491.072388" x2="634.898315" y2="545.137085" stroke-width="1" stroke="rgb(0,0,0)"/>
   <line x1="634.898315" y1="545.137085" x2="635.030212" y2="545.238647" stroke-width="1" stroke="rgb(0,0,0)"/>
   <line x1="635.030212" y1="545.238647" x2="617.521667" y2="558.716675" stroke-width="1" stroke="rgb(0,0,0)"/>
   <line x1="617.521667" y1="558.716675" x2="617.488708" y2="558.742065" stroke-width="1" stroke="rgb(0,0,0)"/>
   <line x1="631.601074" y1="541.380493" x2="617.488708" y2="552.244202" stroke-width="1" stroke="rgb(0,0,0)"/>
   <line x1="617.488708" y1="552.244202" x2="614.026550" y2="554.909363" stroke-width="1" stroke="rgb(0,0,0)"/>
   <line x1="614.026550" y1="554.909363" x2="599.914185" y2="565.773071" stroke-width="1" stroke="rgb(0,0,0)"/>
   <line x1="599.914185" y1="565.773071" x2="596.419067" y2="568.463623" stroke-width="1" stroke="rgb(0,0,0)"/>
   <line x1="596.419067" y1="568.463623" x2="582.306702" y2="579.327271" stroke-width="1" stroke="rgb(0,0,0)"/>
   <line x1="582.306702" y1="579.327271" x2="578.844543" y2="581.992432" stroke-width="1" stroke="rgb(0,0,0)"/>
   <line x1="578.844543" y1="581.992432" x2="564.699219" y2="592.881531" stroke-width="1" stroke="rgb(0,0,0)"/>
   <line x1="564.699219" y1="592.881531" x2="561.237061" y2="595.546692" stroke-width="1" stroke="rgb(0,0,0)"/>
   <line x1="561.237061" y1="595.546692" x2="547.124695" y2="606.410400" stroke-width="1" stroke="rgb(0,0,0)"/>
   <line x1="547.124695" y1="606.410400" x2="543.662537" y2="609.075562" stroke-width="1" stroke="rgb(0,0,0)"/>
   <line x1="543.662537" y1="609.075562" x2="529.583130" y2="619.913879" stroke-width="1" stroke="rgb(0,0,0)"/>
   <line x1="529.583130" y1="619.913879" x2="515.701599" y2="609.227844" stroke-width="1" stroke="rgb(0,0,0)"/>
   <line x1="515.701599" y1="609.227844" x2="459.219177" y2="565.747681" stroke-width="1" stroke="rgb(0,0,0)"/>
   <line x1="459.219177" y1="565.747681" x2="445.337616" y2="555.061646" stroke-width="1" stroke="rgb(0,0,0)"/>
   <line x1="445.337616" y1="555.061646" x2="388.888153" y2="511.606812" stroke-width="1" stroke="rgb(0,0,0)"/>
   <line x1="388.888153" y1="511.606812" x2="375.006592" y2="500.920776" stroke-width="1" stroke="rgb(0,0,0)"/>
   <line x1="375.006592" y1="500.920776" x2="318.557129" y2="457.465942" stroke-width="1" stroke="rgb(0,0,0)"/>
   <line x1="318.557129" y1="457.465942" x2="304.642609" y2="446.805298" stroke-width="1" stroke="rgb(0,0,0)"/>
   <line x1="304.642609" y1="446.805298" x2="248.127213" y2="403.350464" stroke-width="1" stroke="rgb(0,0,0)"/>
   <line x1="248.127213" y1="403.350464" x2="234.245651" y2="392.664429" stroke-width="1" stroke="rgb(0,0,0)"/>
   <line x1="234.245651" y1="392.664429" x2="177.796204" y2="349.209625" stroke-width="1" stroke="rgb(0,0,0)"/>
   <line x1="177.796204" y1="349.209625" x2="163.914642" y2="338.523590" stroke-width="1" stroke="rgb(0,0,0)"/>
   <line x1="163.914642" y1="338.523590" x2="107.465179" y2="295.068756" stroke-width="1" stroke="rgb(0,0,0)"/>
   <line x1="107.465179" y1="295.068756" x2="110.960297" y2="292.378235" stroke-width="1" stroke="rgb(0,0,0)"/>
   <line x1="110.960297" y1="292.378235" x2="125.072662" y2="281.514526" stroke-width="1" stroke="rgb(0,0,0)"/>
   <line x1="125.072662" y1="281.514526" x2="128.534790" y2="278.849365" stroke-width="1" stroke="rgb(0,0,0)"/>
   <line x1="128.534790" y1="278.849365" x2="142.647156" y2="267.985657" stroke-width="1" stroke="rgb(0,0,0)"/>
   <line x1="142.647156" y1="267.985657" x2="146.142273" y2="265.295105" stroke-width="1" stroke="rgb(0,0,0)"/>
   <line x1="146.142273" y1="265.295105" x2="160.254639" y2="254.431396" stroke-width="1" stroke="rgb(0,0,0)"/>
   <line x1="160.254639" y1="254.431396" x2="163.716797" y2="251.766251" stroke-width="1" stroke="rgb(0,0,0)"/>
   <line x1="163.716797" y1="251.766251" x2="177.862137" y2="240.877167" stroke-width="1" stroke="rgb(0,0,0)"/>
   <line x1="177.862137" y1="240.877167" x2="181.324280" y2="238.212006" stroke-width="1" stroke="rgb(0,0,0)"/>
   <line x1="181.324280" y1="238.212006" x2="195.436646" y2="227.348297" stroke-width="1" stroke="rgb(0,0,0)"/>
   <line x1="195.436646" y1="227.348297" x2="198.898788" y2="224.683136" stroke-width="1" stroke="rgb(0,0,0)"/>
   <line x1="198.898788" y1="224.683136" x2="212.978180" y2="213.844818" stroke-width="1" stroke="rgb(0,0,0)"/>
   <line x1="212.978180" y1="213.844818" x2="226.826767" y2="224.505463" stroke-width="1" stroke="rgb(0,0,0)"/>
   <line x1="226.826767" y1="224.505463" x2="283.309204" y2="267.985657" stroke-width="1" stroke="rgb(0,0,0)"/>
   <line x1="283.309204" y1="267.985657" x2="297.157776" y2="278.646301" stroke-width="1" stroke="rgb(0,0,0)"/>
   <line x1="297.157776" y1="278.646301" x2="353.640228" y2="322.126526" stroke-width="1" stroke="rgb(0,0,0)"/>
   <line x1="353.640228" y1="322.126526" x2="367.488800" y2="332.787170" stroke-width="1" stroke="rgb(0,0,0)"/>
   <line x1="367.488800" y1="332.787170" x2="424.004211" y2="376.292755" stroke-width="1" stroke="rgb(0,0,0)"/>
   <line x1="424.004211" y1="376.292755" x2="437.852783" y2="386.953400" stroke-width="1" stroke="rgb(0,0,0)"/>
   <line x1="437.852783" y1="386.953400" x2="494.335236" y2="430.433594" stroke-width="1" stroke="rgb(0,0,0)"/>
   <line x1="494.335236" y1="430.433594" x2="508.183807" y2="441.094238" stroke-width="1" stroke="rgb(0,0,0)"/>
   <line x1="508.183807" y1="441.094238" x2="564.666260" y2="484.574463" stroke-width="1" stroke="rgb(0,0,0)"/>
   <line x1="564.666260" y1="484.574463" x2="578.514832" y2="495.235107" stroke-width="1" stroke="rgb(0,0,0)"/>
   <line x1="578.514832" y1="495.235107" x2="635.030212" y2="538.740723" stroke-width="1" stroke="rgb(0,0,0)"/>
   <line x1="635.030212" y1="538.740723" x2="631.601074" y2="541.380493" stroke-width="1" stroke="rgb(0,0,0)"/>
   <line x1="628.072998" y1="537.598511" x2="617.488708" y2="545.746277" stroke-width="1" stroke="rgb(0,0,0)"/>
   <line x1="617.488708" y1="545.746277" x2="610.498474" y2="551.127319" stroke-width="1" stroke="rgb(0,0,0)"/>
   <line x1="610.498474" y1="551.127319" x2="599.914185" y2="559.275146" stroke-width="1" stroke="rgb(0,0,0)"/>
   <line x1="599.914185" y1="559.275146" x2="592.890991" y2="564.681641" stroke-width="1" stroke="rgb(0,0,0)"/>
   <line x1="592.890991" y1="564.681641" x2="582.306702" y2="572.829346" stroke-width="1" stroke="rgb(0,0,0)"/>
   <line x1="582.306702" y1="572.829346" x2="575.316467" y2="578.210449" stroke-width="1" stroke="rgb(0,0,0)"/>
   <line x1="575.316467" y1="578.210449" x2="564.699219" y2="586.383667" stroke-width="1" stroke="rgb(0,0,0)"/>
   <line x1="564.699219" y1="586.383667" x2="557.708984" y2="591.764709" stroke-width="1" stroke="rgb(0,0,0)"/>
   <line x1="557.708984" y1="591.764709" x2="547.124695" y2="599.912476" stroke-width="1" stroke="rgb(0,0,0)"/>
   <line x1="547.124695" y1="599.912476" x2="540.134460" y2="605.293579" stroke-width="1" stroke="rgb(0,0,0)"/>
   <line x1="540.134460" y1="605.293579" x2="529.583130" y2="613.416016" stroke-width="1" stroke="rgb(0,0,0)"/>
   <line x1="529.583130" y1="613.416016" x2="501.589233" y2="591.866211" stroke-width="1" stroke="rgb(0,0,0)"/>
   <line x1="501.589233" y1="591.866211" x2="459.219177" y2="559.249756" stroke-width="1" stroke="rgb(0,0,0)"/>
   <line x1="459.219177" y1="559.249756" x2="431.225250" y2="537.700012" stroke-width="1" stroke="rgb(0,0,0)"/>
   <line x1="431.225250" y1="537.700012" x2="388.888153" y2="505.108887" stroke-width="1" stroke="rgb(0,0,0)"/>
   <line x1="388.888153" y1="505.108887" x2="360.894226" y2="483.559143" stroke-width="1" stroke="rgb(0,0,0)"/>
   <line x1="360.894226" y1="483.559143" x2="318.557129" y2="450.968018" stroke-width="1" stroke="rgb(0,0,0)"/>
   <line x1="318.557129" y1="450.968018" x2="290.530243" y2="429.443665" stroke-width="1" stroke="rgb(0,0,0)"/>
   <line x1="290.530243" y1="429.443665" x2="248.127213" y2="396.852539" stroke-width="1" stroke="rgb(0,0,0)"/>
   <line x1="248.127213" y1="396.852539" x2="220.133286" y2="375.302826" stroke-width="1" stroke="rgb(0,0,0)"/>
   <line x1="220.133286" y1="375.302826" x2="177.796204" y2="342.711700" stroke-width="1" stroke="rgb(0,0,0)"/>
   <line x1="177.796204" y1="342.711700" x2="149.802277" y2="321.161957" stroke-width="1" stroke="rgb(0,0,0)"/>
   <line x1="149.802277" y1="321.161957" x2="107.465179" y2="288.570862" stroke-width="1" stroke="rgb(0,0,0)"/>
   <line x1="107.465179" y1="288.570862" x2="114.488373" y2="283.164368" stroke-width="1" stroke="rgb(0,0,0)"/>
   <line x1="114.488373" y1="283.164368" x2="125.072662" y2="275.016602" stroke-width="1" stroke="rgb(0,0,0)"/>
   <line x1="125.072662" y1="275.016602" x2="132.062897" y2="269.635498" stroke-width="1" stroke="rgb(0,0,0)"/>
   <line x1="132.062897" y1="269.635498" x2="142.647156" y2="261.487732" stroke-width="1" stroke="rgb(0,0,0)"/>
   <line x1="142.647156" y1="261.487732" x2="149.670380" y2="256.081268" stroke-width="1" stroke="rgb(0,0,0)"/>
   <line x1="149.670380" y1="256.081268" x2="160.254639" y2="247.933487" stroke-width="1" stroke="rgb(0,0,0)"/>
   <line x1="160.254639" y1="247.933487" x2="167.244888" y2="242.552399" stroke-width="1" stroke="rgb(0,0,0)"/>
   <line x1="167.244888" y1="242.552399" x2="177.862137" y2="234.379242" stroke-width="1" stroke="rgb(0,0,0)"/>
   <line x1="177.862137" y1="234.379242" x2="184.852371" y2="228.998154" stroke-width="1" stroke="rgb(0,0,0)"/>
   <line x1="184.852371" y1="228.998154" x2="195.436646" y2="220.850372" stroke-width="1" stroke="rgb(0,0,0)"/>
   <line x1="195.436646" y1="220.850372" x2="202.426880" y2="215.469299" stroke-width="1" stroke="rgb(0,0,0)"/>
   <line x1="202.426880" y1="215.469299" x2="212.978180" y2="207.346893" stroke-width="1" stroke="rgb(0,0,0)"/>
   <line x1="212.978180" y1="207.346893" x2="240.939133" y2="228.871246" stroke-width="1" stroke="rgb(0,0,0)"/>
   <line x1="240.939133" y1="228.871246" x2="283.309204" y2="261.487732" stroke-width="1" stroke="rgb(0,0,0)"/>
   <line x1="283.309204" y1="261.487732" x2="311.270142" y2="283.012085" stroke-width="1" stroke="rgb(0,0,0)"/>
   <line x1="311.270142" y1="283.012085" x2="353.640228" y2="315.628601" stroke-width="1" stroke="rgb(0,0,0)"/>
   <line x1="353.640228" y1="315.628601" x2="381.601166" y2="337.152954" stroke-width="1" stroke="rgb(0,0,0)"/>
   <line x1="381.601166" y1="337.152954" x2="424.004211" y2="369.794830" stroke-width="1" stroke="rgb(0,0,0)"/>
   <line x1="424.004211" y1="369.794830" x2="451.965149" y2="391.319183" stroke-width="1" stroke="rgb(0,0,0)"/>
   <line x1="451.965149" y1="391.319183" x2="494.335236" y2="423.935699" stroke-width="1" stroke="rgb(0,0,0)"/>
   <line x1="494.335236" y1="423.935699" x2="522.296143" y2="445.460052" stroke-width="1" stroke="rgb(0,0,0)"/>
   <line x1="522.296143" y1="445.460052" x2="564.666260" y2="478.076538" stroke-width="1" stroke="rgb(0,0,0)"/>
   <line x1="564.666260" y1="478.076538" x2="592.627197" y2="499.600891" stroke-width="1" stroke="rgb(0,0,0)"/>
   <line x1="592.627197" y1="499.600891" x2="635.030212" y2="532.242798" stroke-width="1" stroke="rgb(0,0,0)"/>
   <line x1="635.030212" y1="532.242798" x2="628.072998" y2="537.598511" stroke-width="1" stroke="rgb(0,0,0)"/>
</svg>
